<?xml version="1.0" encoding="utf-8"?>
<!-- Generator: Adobe Illustrator 24.0.2, SVG Export Plug-In . SVG Version: 6.00 Build 0)  -->
<svg version="1.1" xmlns="http://www.w3.org/2000/svg" xmlns:xlink="http://www.w3.org/1999/xlink" x="0px" y="0px"
	 viewBox="0 0 50 50" style="enable-background:new 0 0 50 50;" xml:space="preserve">
<style type="text/css">
	.st0{fill:#FFFFFF;}
</style>
<g id="Layer_1">
</g>
<g id="Layer_2">
	<g>
		<path class="st0" d="M24.9,30.5c2.5,0,4.7-0.9,6.5-2.7c1.8-1.8,2.7-4,2.7-6.5c0-2.5-0.9-4.7-2.7-6.5c-1.8-1.8-4-0.8-6.5-0.8
			c-2.5,0-4.7-1-6.5,0.8c-1.8,1.8-2.7,4-2.7,6.5c0,2.5,0.9,4.7,2.7,6.5C20.2,29.6,22.4,30.5,24.9,30.5z"/>
		<path class="st0" d="M40.9,40.8c-0.1-0.7-0.2-1.6-0.3-2.4c-0.2-0.9-0.4-1.7-0.6-2.4c-0.2-0.8-0.6-1.5-1-2.3
			c-0.4-0.8-0.9-1.4-1.5-2c-0.6-0.6-1.3-1-2.2-1.4c-0.8-0.3-1.8-0.5-2.8-0.5c-0.4,0-0.8,0.2-1.5,0.6c-0.4,0.3-1,0.6-1.6,1
			c-0.5,0.3-1.2,0.6-2,0.9c-0.8,0.3-1.6,0.4-2.5,0.4c-0.8,0-1.6-0.1-2.5-0.4c-0.8-0.3-1.5-0.6-2-0.9c-0.6-0.4-1.1-0.7-1.6-1
			c-0.7-0.5-1.1-0.6-1.5-0.6c-1,0-1.9,0.2-2.8,0.5c-0.8,0.3-1.6,0.8-2.2,1.4c-0.6,0.5-1.1,1.2-1.5,2c-0.4,0.7-0.8,1.5-1,2.3
			c-0.2,0.7-0.4,1.6-0.6,2.4c-0.2,0.9-0.3,1.7-0.3,2.4c-0.1,0.7-0.1,1.5-0.1,2.3c0,2,0.6,3.6,1.9,4.8c1.2,1.2,2.9,1.8,4.9,1.8h18.4
			c2,0,3.6-0.6,4.9-1.8C40.4,46.6,41,45,41,43C41,42.3,41,41.5,40.9,40.8z"/>
		<path class="st0" d="M18.3,10.6v1.3c0,0.3,0.3,0.6,0.6,0.6H31c0.3,0,0.6-0.3,0.6-0.6v-1.3H18.3z"/>
		<path class="st0" d="M34.5,3.5c0-1-0.8-1.8-1.8-1.8c-1,0-1.8,0.8-1.8,1.8c0,0.5,0.2,0.9,0.5,1.2c-0.5,0.6-1.3,1-2.2,1
			c-1.4,0-2.6-1-2.9-2.4c0.3-0.3,0.5-0.8,0.5-1.3c0-1-0.8-1.8-1.8-1.8s-1.8,0.8-1.8,1.8c0,0.5,0.2,1,0.5,1.3
			c-0.3,1.3-1.5,2.4-2.9,2.4c-0.9,0-1.7-0.4-2.2-1C18.9,4.4,19,4,19,3.5c0-1-0.8-1.8-1.8-1.8c-1,0-1.8,0.8-1.8,1.8
			c0,0.9,0.6,1.6,1.4,1.8c0.2,1.3,0.5,3,1.1,4.2H32c0.6-1.3,0.9-2.9,1.1-4.2C33.9,5.1,34.5,4.3,34.5,3.5z"/>
	</g>
</g>
</svg>
