<?xml version="1.0" encoding="utf-8"?>
<!-- Generator: Adobe Illustrator 24.0.2, SVG Export Plug-In . SVG Version: 6.00 Build 0)  -->
<svg version="1.1" id="Layer_1" xmlns="http://www.w3.org/2000/svg" xmlns:xlink="http://www.w3.org/1999/xlink" x="0px" y="0px"
	 viewBox="0 0 50 50" style="enable-background:new 0 0 50 50;" xml:space="preserve">
<style type="text/css">
	.st0{fill:#FFFFFF;}
</style>
<path class="st0" d="M32.4,38.3l3.2,3.2l6.1-6.1l-3.2-3.2c-0.8,1.2-1.7,2.3-2.7,3.3C34.7,36.6,33.6,37.5,32.4,38.3z"/>
<path class="st0" d="M37.6,43.5l4.7,4.7c0.8,0.8,1.9,1.3,3,1.3s2.2-0.4,3-1.3c0.8-0.8,1.3-1.9,1.3-3s-0.4-2.2-1.3-3l-4.7-4.7
	L37.6,43.5z"/>
<path class="st0" d="M0.7,19.9c0,10.7,8.7,19.3,19.3,19.3s19.3-8.7,19.3-19.3S30.7,0.5,20,0.5S0.7,9.2,0.7,19.9z M5,19.9
	c0-8.3,6.7-15,15-15s15,6.7,15,15s-6.7,15-15,15S5,28.2,5,19.9z"/>
<path class="st0" d="M32.5,19.7c0,6.9-5.6,12.5-12.5,12.5S7.6,26.6,7.6,19.7S13.2,7.3,20,7.3S32.5,12.9,32.5,19.7z M24.1,11.7
	c-1-0.8-2.3-1.2-3.9-1.2c-2,0-3.6,0.5-4.9,1.6c-0.4,0.3-0.6,0.7-0.6,1.2c0,0.4,0.2,0.8,0.5,1.1c0.3,0.3,0.7,0.5,1.1,0.5
	c0.4,0,0.7-0.1,1-0.4c0.7-0.6,1.7-0.8,2.9-0.8c1.6,0,2.5,0.5,2.5,1.6c0,0.8-0.3,1.4-1,1.9c-1,0.7-1.6,1.3-2,1.9
	c-0.6,1-0.9,1.9-0.9,2.7c0,0.6,0.1,1,0.4,1.3c0.3,0.3,0.6,0.5,1,0.5c0.9,0,1.5-0.6,1.7-1.9c0.1-0.8,0.6-1.5,1.3-2
	c1.1-0.8,1.7-1.2,1.8-1.3c0.6-0.7,0.9-1.7,0.9-3.1C25.8,13.7,25.2,12.5,24.1,11.7z M21.2,25.6c-0.3-0.3-0.7-0.5-1.2-0.5
	c-0.5,0-0.9,0.2-1.2,0.5c-0.3,0.3-0.5,0.7-0.5,1.2c0,0.5,0.2,0.9,0.5,1.2c0.3,0.3,0.7,0.5,1.2,0.5c0.5,0,0.9-0.2,1.2-0.5
	c0.3-0.3,0.5-0.7,0.5-1.2C21.7,26.4,21.5,26,21.2,25.6z"/>
</svg>
