<?xml version="1.0" encoding="utf-8"?>
<!-- Generator: Adobe Illustrator 24.0.1, SVG Export Plug-In . SVG Version: 6.00 Build 0)  -->
<svg version="1.1" id="Layer_1" xmlns="http://www.w3.org/2000/svg" xmlns:xlink="http://www.w3.org/1999/xlink" x="0px" y="0px"
	 viewBox="0 0 512 512" style="enable-background:new 0 0 512 512;" xml:space="preserve">
<style type="text/css">
	.st0{fill:#FFFFFF;}
</style>
<g>
	<g id="Layer_1_65_">
		<g>
			<path class="st0" d="M507,214.7c-1.7-3.7-5.5-6.1-9.6-6.1H466C446,100.3,350.9,18,237,18C108.5,18,4,122.5,4,251
				s104.5,233,233,233c82.9,0,160.2-44.6,201.8-116.4c5.9-10.1,2.4-23.1-7.7-28.9c-10.1-5.9-23.1-2.4-28.9,7.7
				c-34,58.8-97.3,95.3-165.1,95.3c-105.1,0-190.6-85.5-190.6-190.6c0-105.1,85.5-190.6,190.6-190.6c90.5,0,166.4,63.5,185.7,148.2
				h-31.1c-4.1,0-7.8,2.4-9.6,6.1c-1.7,3.7-1.2,8.1,1.5,11.3l53,63.5c2,2.4,5,3.8,8.1,3.8c3.1,0,6.1-1.4,8.1-3.8l53-63.5
				C508.2,222.8,508.7,218.4,507,214.7z"/>
			<path class="st0" d="M237,71c-11.7,0-21.2,9.5-21.2,21.2v128.5c-9.6,6.7-15.9,17.8-15.9,30.3c0,20.4,16.6,37.1,37.1,37.1
				c5.6,0,10.9-1.3,15.6-3.6l73.7,42.5c3.3,1.9,7,2.9,10.6,2.9c7.3,0,14.4-3.8,18.4-10.6c5.8-10.1,2.4-23.1-7.8-28.9l-73.7-42.6
				c-1-11.2-6.8-21-15.5-27.1V92.1C258.2,80.4,248.7,71,237,71z M237,266.9c-8.8,0-15.9-7.1-15.9-15.9c0-8.8,7.1-15.9,15.9-15.9
				s15.9,7.1,15.9,15.9C252.9,259.7,245.7,266.9,237,266.9z"/>
		</g>
	</g>
</g>
</svg>
