<?xml version="1.0" encoding="utf-8"?>
<!-- Generator: Adobe Illustrator 24.0.1, SVG Export Plug-In . SVG Version: 6.00 Build 0)  -->
<svg version="1.1" id="Layer_1" xmlns="http://www.w3.org/2000/svg" xmlns:xlink="http://www.w3.org/1999/xlink" x="0px" y="0px"
	 viewBox="0 0 512 512" style="enable-background:new 0 0 512 512;" xml:space="preserve">
<style type="text/css">
	.st0{fill:#FFFFFF;}
</style>
<g>
	<polygon class="st0" points="508.4,256.4 354.2,147.1 354.2,210.6 303.7,210.6 303.7,302.2 354.2,302.2 354.2,365.7 	"/>
	<path class="st0" d="M145.2,256.4c0-39.2-31.9-71.1-71.1-71.1S3,217.1,3,256.4s31.9,71.1,71.1,71.1S145.2,295.6,145.2,256.4z"/>
	<path class="st0" d="M76,62h-6.1v76.6H76c64.9,0,117.8,52.8,117.8,117.8S141,374.1,76,374.1h-6.1v76.6H76
		c107.2,0,194.4-87.2,194.4-194.4S183.2,62,76,62z"/>
</g>
</svg>
