<?xml version="1.0" encoding="utf-8"?>
<!-- Generator: Adobe Illustrator 24.1.0, SVG Export Plug-In . SVG Version: 6.00 Build 0)  -->
<svg version="1.1" id="Layer_1" xmlns="http://www.w3.org/2000/svg" xmlns:xlink="http://www.w3.org/1999/xlink" x="0px" y="0px"
	 viewBox="0 0 20 20" style="enable-background:new 0 0 20 20;" xml:space="preserve">
<style type="text/css">
	.st0{fill:#FFFFFF;}
</style>
<path class="st0" d="M18.1,10.7C18.1,10.7,18.1,10.7,18.1,10.7L11,3.6L8.7,1.3c-0.2-0.2-0.6-0.2-0.8,0c-0.2,0.2-0.2,0.6,0,0.8
	l0.2,0.2L1.7,14.2l4.1,4.1L7,17.6l1.4,1.1c0.3,0.2,0.6,0.3,1,0.3c0.3,0,0.5-0.1,0.8-0.2l1.9-1.1c0.6-0.3,0.9-1,0.8-1.7l-0.3-1.5
	l5.2-2.8l0.2,0.2c0.1,0.1,0.3,0.2,0.4,0.2c0.1,0,0.3-0.1,0.4-0.2c0.2-0.2,0.2-0.6,0-0.8L18.1,10.7z M11.6,16.4c0,0.2,0,0.3-0.2,0.4
	l-1.9,1.1c-0.1,0.1-0.3,0.1-0.4,0l-1-0.8l3.3-1.8L11.6,16.4z"/>
<path class="st0" d="M1.1,15.2c-0.2-0.2-0.6-0.2-0.8,0c-0.2,0.2-0.2,0.6,0,0.8L4,19.7c0.1,0.1,0.3,0.2,0.4,0.2
	c0.1,0,0.3-0.1,0.4-0.2c0.2-0.2,0.2-0.6,0-0.8L1.1,15.2z"/>
<path class="st0" d="M13.4,3.9c1.5,0,2.7,1.2,2.7,2.7c0,0.3,0.3,0.6,0.6,0.6s0.6-0.3,0.6-0.6c0-2.1-1.7-3.8-3.8-3.8
	c-0.3,0-0.6,0.3-0.6,0.6S13.1,3.9,13.4,3.9z"/>
<path class="st0" d="M14.3,0.1c-0.3,0-0.6,0.3-0.6,0.6s0.3,0.6,0.6,0.6c2.5,0,4.5,2,4.5,4.5c0,0.3,0.3,0.6,0.6,0.6s0.6-0.3,0.6-0.6
	C19.9,2.6,17.4,0.1,14.3,0.1L14.3,0.1z"/>
</svg>
