<?xml version="1.0" encoding="utf-8"?>
<!-- Generator: Adobe Illustrator 24.0.1, SVG Export Plug-In . SVG Version: 6.00 Build 0)  -->
<svg version="1.1" id="Layer_1" xmlns="http://www.w3.org/2000/svg" xmlns:xlink="http://www.w3.org/1999/xlink" x="0px" y="0px"
	 viewBox="0 0 512 512" style="enable-background:new 0 0 512 512;" xml:space="preserve">
<style type="text/css">
	.st0{fill:#FFFFFF;}
</style>
<g>
	<path class="st0" d="M138.9,77.4l-6.3,9.4c-4.2-11.2-9.5-22.2-17-31.5C105.5,42.7,91.7,33,75.3,30.8c-16.1-2.1-33.3,1.7-46.1,12
		C2.7,64.2,0.1,101.7,2.9,133.2c1.4,16,4.8,32,9.9,47.2l32-11.2c-2.2-6.5-4-13.1-5.5-19.8c-2.8-14.5-3.9-29.3-3.1-44.1
		c0.6-6.9,1.7-13.8,3.7-20.4c1.2-3.2,2.7-6.3,4.5-9.2c1.3-1.8,2.8-3.5,4.4-5.1c1.6-1.3,3.4-2.5,5.2-3.5c2.3-1,4.6-1.8,7-2.4
		c2.5-0.4,5-0.5,7.4-0.5c2.2,0.3,4.4,0.7,6.6,1.3c2,0.8,4,1.8,5.8,2.9c2.4,1.7,4.5,3.7,6.5,5.8c3.3,4.1,6.2,8.5,8.7,13.2
		c4.1,8.5,7.1,17.5,10,26.5c0.9,2.9,1.8,5.8,2.6,8.7L14.1,263.1l124.8,185.7h368.2V77.4L138.9,77.4L138.9,77.4z M138.9,258
		c2.8,0,5.1,2.3,5.1,5.1s-2.3,5.1-5.1,5.1s-5.1-2.3-5.1-5.1S136,258,138.9,258z M472.2,413.9H157.5L56.2,263.1l62.2-92.6
		c2.4,18.8,3.4,37.7,2.9,56.7c-13.3,6.5-22.4,20.2-22.4,35.9c0,22.1,18,40.1,40.1,40.1s40.1-18,40.1-40.1c0-16.4-9.9-30.5-24-36.7
		c0.8-28-1.3-55.9-6.8-83.5c-0.8-4.2-1.7-8.4-2.7-12.6l12.1-18h314.7L472.2,413.9L472.2,413.9L472.2,413.9z M236.8,334.3L404,167.2
		l24.7,24.7L261.5,359.1L236.8,334.3z M276.4,251.5c24.6,0,44.7-20,44.7-44.7s-20-44.7-44.7-44.7s-44.7,20-44.7,44.7
		S251.8,251.5,276.4,251.5z M276.4,197c5.4,0,9.8,4.4,9.8,9.8c0,5.4-4.4,9.8-9.8,9.8s-9.8-4.4-9.8-9.8
		C266.6,201.3,271,197,276.4,197z M389.1,274.8c-24.6,0-44.7,20-44.7,44.7c0,24.6,20,44.7,44.7,44.7s44.7-20,44.7-44.7
		C433.8,294.8,413.8,274.8,389.1,274.8z M389.1,329.3c-5.4,0-9.8-4.4-9.8-9.8s4.4-9.8,9.8-9.8s9.8,4.4,9.8,9.8
		S394.5,329.3,389.1,329.3z"/>
</g>
</svg>
