<?xml version="1.0" encoding="utf-8"?>
<!-- Generator: Adobe Illustrator 24.1.0, SVG Export Plug-In . SVG Version: 6.00 Build 0)  -->
<svg version="1.1" id="Layer_1" xmlns="http://www.w3.org/2000/svg" xmlns:xlink="http://www.w3.org/1999/xlink" x="0px" y="0px"
	 viewBox="0 0 20 20" style="enable-background:new 0 0 20 20;" xml:space="preserve">
<style type="text/css">
	.st0{fill:#C7C6C5;}
	.st1{fill:#D8D9D8;}
	.st2{fill:#DDF2FB;}
	.st3{fill:#F7FCFE;}
	.st4{fill:#FCB52D;}
	.st5{fill:#FDCC09;}
	.st6{fill:#92C03E;}
	.st7{fill:#A7CF38;}
</style>
<g>
	<path class="st0" d="M10,0.2L9.2,10l0.8,9.8h8.8V0.2H10z"/>
	<path class="st1" d="M1.2,0.2H10v19.6H1.2V0.2z"/>
	<path class="st2" d="M17.7,1.4H10L9.2,7.6l0.8,6.6l7.7-4.1V1.4z"/>
	<path class="st3" d="M2.4,1.4v12.1l7.7,0.7V1.4H2.4z"/>
	<path class="st4" d="M12.1,8.7c0-1.5-0.9-2.8-2.1-3.4L9.7,8.7l0.3,3.4C11.3,11.5,12.1,10.2,12.1,8.7z"/>
	<path class="st5" d="M8.4,5C6.3,5,4.6,6.7,4.6,8.7s1.7,3.8,3.8,3.8c0.6,0,1.1-0.1,1.6-0.4V5.4C9.5,5.1,9,5,8.4,5z"/>
	<path class="st6" d="M17.7,10.1l-4.7-3.6L10,9.9l-0.3,3.5l0.3,2.1h7.6V10.1z"/>
	<path class="st7" d="M8.3,11.9L5,10.3l-2.6,3.2v2H10V9.9L8.3,11.9z"/>
</g>
</svg>
