<svg xmlns="http://www.w3.org/2000/svg" width="19.739" height="20" viewBox="0 0 19.739 20">
  <g id="Group_132" data-name="Group 132" transform="translate(-3.667 -3.146)">
    <path id="Path_439" data-name="Path 439" d="M23.109,40.531V34.912a2.349,2.349,0,1,1,4.7,0v5.618Z" transform="translate(-11.922 -18.039)" fill="#74878b"/>
    <path id="Path_440" data-name="Path 440" d="M28.034,40.758H24.11V35.526a1.962,1.962,0,0,1,3.924,0Z" transform="translate(-12.536 -18.653)" fill="#74878b"/>
    <path id="Path_441" data-name="Path 441" d="M23.177,12.1,13.536,3.146,3.894,12.1a.714.714,0,0,0,.972,1.046l.435-.4v10.4H21.77V12.741l.435.4a.714.714,0,0,0,.972-1.045ZM20.729,22.105H16.151V16.873a2.616,2.616,0,1,0-5.232,0v5.232H6.342V11.246l7.194-6.68,7.194,6.68Z" transform="translate(0 0)" fill="#74878b"/>
  </g>
</svg>
