<?xml version="1.0" encoding="utf-8"?>
<!-- Generator: Adobe Illustrator 24.0.1, SVG Export Plug-In . SVG Version: 6.00 Build 0)  -->
<svg version="1.1" id="Layer_1" xmlns="http://www.w3.org/2000/svg" xmlns:xlink="http://www.w3.org/1999/xlink" x="0px" y="0px"
	 viewBox="0 0 512 512" style="enable-background:new 0 0 512 512;" xml:space="preserve">
<style type="text/css">
	.st0{fill:#FFFFFF;}
</style>
<g>
	<path class="st0" d="M281.9,245c5.8-3,12.3-4.6,19-4.6c11.1,0,21.6,4.3,29.5,12.2l17-17c42.1,14.8,90.8,5.3,124.4-28.3
		c28.3-28.3,39.5-67.3,33.5-104c-0.7-4-3.5-7.4-7.4-8.6c-3.9-1.3-8.2-0.2-11.1,2.7l-25.3,25.3c-20.6,20.6-53.9,20.6-74.5,0
		c-20.6-20.6-20.6-53.9,0-74.5l25.3-25.3c2.9-2.9,3.9-7.2,2.7-11.1c-1.3-3.9-4.6-6.8-8.6-7.4c-36.7-6-75.7,5.2-104,33.5
		c-34.2,34.2-43.3,83.8-27.6,126.3L238,201L281.9,245z"/>
	<path class="st0" d="M214.7,311.8l-43.8-43.8l-153,153C-2,441-2,473.3,17.9,493.2c19.9,19.9,52.2,19.9,72.1,0l131.9-131.9
		C208.6,347.9,206.2,327.7,214.7,311.8z"/>
	<path class="st0" d="M312.3,271c-3.1-3.1-7.2-4.7-11.3-4.7s-8.2,1.6-11.3,4.7l-9.1,9.1L117.8,117.4l7.6-7.6
		c6.9-6.9,6.1-18.4-1.8-24.2L57.1,36.7c-6.4-4.7-15.2-4-20.8,1.6L8.1,66.4C2.5,72,1.8,80.9,6.5,87.3l48.9,66.4
		c5.8,7.9,17.3,8.8,24.2,1.8l7.6-7.6L250,310.6l-9.8,9.8c-6.3,6.3-6.3,16.4,0,22.7l150.1,150.1c19.9,19.9,52.2,19.9,72.1,0
		c19.9-19.9,19.9-52.2,0-72.1L312.3,271z"/>
</g>
</svg>
