<svg xmlns="http://www.w3.org/2000/svg" width="10" height="6" viewBox="0 0 10 6">
  <g id="ow" transform="translate(5.007 2.934)">
    <g id="ow-2" data-name="ow" transform="translate(-5.007 -2.934)">
      <path id="Path_227" data-name="Path 227" d="M4.993,5.993a.885.885,0,0,1-.5-.2L.2,1.265A.774.774,0,0,1,.2.211a.68.68,0,0,1,1,0l3.795,4,3.795-4a.68.68,0,0,1,1,0,.774.774,0,0,1,0,1.053L5.492,5.794A.885.885,0,0,1,4.993,5.993Z" transform="translate(0.007 0.007)" fill="#616161"/>
    </g>
  </g>
</svg>
