<?xml version="1.0" encoding="utf-8"?>
<!-- Generator: Adobe Illustrator 24.0.2, SVG Export Plug-In . SVG Version: 6.00 Build 0)  -->
<svg version="1.1" id="Layer_1" xmlns="http://www.w3.org/2000/svg" xmlns:xlink="http://www.w3.org/1999/xlink" x="0px" y="0px"
	 viewBox="0 0 50 50" style="enable-background:new 0 0 50 50;" xml:space="preserve">
<style type="text/css">
	.st0{fill:#FFFFFF;}
</style>
<g id="Layer_2_1_">
	<path class="st0" d="M42.9,1.1H7.1c-3.7,0-6.8,3-6.8,6.8v24.9c0,3.7,3,6.8,6.8,6.8v10l14.3-10H43c3.7,0,6.8-3,6.8-6.8V7.9
		C49.7,4.1,46.7,1.1,42.9,1.1z M35.5,23.5H15.6v-2.9h19.9V23.5z M35.5,17.3H15.6v-2.9h19.9V17.3z M6.3,11.6c0.4-0.2,0.9-0.2,1.4-0.2
		c2.4,0,4.3,1.9,4.3,4.3S10.1,20,7.7,20s-4.3-2-4.3-4.4c0,0-0.8-8.1,5.9-11.2C9.4,4.4,5.6,9.6,6.3,11.6z M39.7,17.3
		c6.7,3.1,5.9,11.2,5.9,11.2c0,2.4-1.9,4.3-4.3,4.3S37,30.9,37,28.6s1.9-4.3,4.3-4.3c0.5,0,1,0.1,1.4,0.2
		C43.4,22.5,39.7,17.3,39.7,17.3z"/>
</g>
</svg>
