<?xml version="1.0" encoding="utf-8"?>
<!-- Generator: Adobe Illustrator 24.1.0, SVG Export Plug-In . SVG Version: 6.00 Build 0)  -->
<svg version="1.1" id="Layer_1" xmlns="http://www.w3.org/2000/svg" xmlns:xlink="http://www.w3.org/1999/xlink" x="0px" y="0px"
	 viewBox="0 0 20 20" style="enable-background:new 0 0 20 20;" xml:space="preserve">
<style type="text/css">
	.st0{fill:#7CB8E5;}
	.st1{fill:#689FC9;}
	.st2{fill:#FFFFFF;}
	.st3{fill:#FEEA99;}
</style>
<g>
	<path class="st0" d="M17,19.8H3.3c-0.4,0-0.7-0.3-0.7-0.7V0.8c0-0.4,0.3-0.7,0.7-0.7h10.8l3.6,3.6v15.4
		C17.7,19.5,17.4,19.8,17,19.8z"/>
	<path class="st1" d="M14.1,0.1v3c0,0.4,0.3,0.7,0.7,0.7h3L14.1,0.1z"/>
	<g>
		<path class="st2" d="M4.6,2.1h0.7v0.7H4.6V2.1z"/>
		<path class="st2" d="M5.9,2.1h6.6v0.7H5.9V2.1z"/>
		<path class="st2" d="M4.6,3.4h7.9v0.7H4.6V3.4z"/>
		<path class="st2" d="M4.6,6h0.7v0.7H4.6V6z"/>
		<path class="st2" d="M5.9,6h9.8v0.7H5.9V6z"/>
		<path class="st2" d="M4.6,7.3h11.1V8H4.6V7.3z"/>
	</g>
	<path class="st3" d="M4.9,9.3h10.5c0.2,0,0.3,0.1,0.3,0.3v7.9c0,0.2-0.1,0.3-0.3,0.3H4.9c-0.2,0-0.3-0.1-0.3-0.3V9.6
		C4.6,9.5,4.7,9.3,4.9,9.3z"/>
	<g>
		<path class="st2" d="M9.8,13.2h0.7v0.7H9.8V13.2z"/>
		<path class="st2" d="M11.1,13.2h0.7v0.7h-0.7V13.2z"/>
		<path class="st2" d="M8.5,13.2h0.7v0.7H8.5V13.2z"/>
	</g>
</g>
</svg>
