<?xml version="1.0" encoding="utf-8"?>
<!-- Generator: Adobe Illustrator 24.1.0, SVG Export Plug-In . SVG Version: 6.00 Build 0)  -->
<svg version="1.1" id="Layer_1" xmlns="http://www.w3.org/2000/svg" xmlns:xlink="http://www.w3.org/1999/xlink" x="0px" y="0px"
	 viewBox="0 0 20 20" style="enable-background:new 0 0 20 20;" xml:space="preserve">
<style type="text/css">
	.st0{fill:#E3E4D8;}
	.st1{fill:#D0CEBD;}
	.st2{fill:#08743B;}
	.st3{fill:#FFFFFF;}
</style>
<g>
	<path class="st0" d="M16.9,18.9H3.3V0.1h10.6L17,3.2v15.7H16.9z"/>
	<path class="st1" d="M13.8,0.1v3.1h3.1L13.8,0.1z"/>
	<path class="st2" d="M3.3,13.7H17v6.1H3.3V13.7z"/>
</g>
<g>
	<path class="st3" d="M5.8,17.2L5,18.5c0,0.1-0.1,0.1-0.2,0.1c-0.2,0-0.6-0.2-0.6-0.4c0,0,0-0.1,0-0.2l0.9-1.4l-0.9-1.4
		c0-0.1-0.1-0.1-0.1-0.2c0-0.2,0.3-0.4,0.5-0.4c0.1,0,0.2,0,0.3,0.1L5.8,16l0.7-1.2c0.1-0.1,0.1-0.1,0.3-0.1c0.2,0,0.5,0.2,0.5,0.4
		c0,0.1,0,0.1-0.1,0.2l-0.9,1.4L7.3,18c0,0.1,0,0.1,0,0.2c0,0.2-0.3,0.4-0.6,0.4c-0.1,0-0.2,0-0.2-0.1L5.8,17.2z"/>
	<path class="st3" d="M8,18.6c-0.2,0-0.4-0.1-0.4-0.3v-3.4c0-0.2,0.2-0.3,0.4-0.3c0.2,0,0.4,0.1,0.4,0.3v2.9h1.2
		c0.2,0,0.2,0.2,0.2,0.4s-0.1,0.4-0.2,0.4L8,18.6L8,18.6L8,18.6z"/>
	<path class="st3" d="M11.9,17.5c0-0.7-1.7-0.5-1.7-1.8c0-0.8,0.7-1.1,1.4-1.1c0.3,0,1.1,0.1,1.1,0.5c0,0.1-0.1,0.4-0.3,0.4
		c-0.2,0-0.3-0.2-0.7-0.2c-0.4,0-0.5,0.2-0.5,0.3c0,0.5,1.7,0.4,1.7,1.8c0,0.8-0.6,1.2-1.3,1.2c-0.7,0-1.3-0.3-1.3-0.7
		c0-0.2,0.2-0.5,0.4-0.5c0.3,0,0.4,0.4,0.9,0.4C11.7,17.9,11.9,17.8,11.9,17.5z"/>
	<path class="st3" d="M14.5,17.2l-0.8,1.3c0,0.1-0.1,0.1-0.2,0.1c-0.2,0-0.6-0.2-0.6-0.4c0,0,0-0.1,0-0.2l0.9-1.4L13,15.2
		c0-0.1-0.1-0.1-0.1-0.2c0-0.2,0.3-0.4,0.5-0.4c0.1,0,0.2,0,0.3,0.1l0.7,1.2l0.7-1.2c0.1-0.1,0.1-0.1,0.3-0.1c0.2,0,0.5,0.2,0.5,0.4
		c0,0.1,0,0.1-0.1,0.2L15,16.6L16,18c0,0.1,0,0.1,0,0.2c0,0.2-0.3,0.4-0.6,0.4c-0.1,0-0.2,0-0.2-0.1L14.5,17.2z"/>
</g>
<g>
	<g>
		<path class="st2" d="M13.8,11.9H6.4V5h7.3V11.9z M7.2,11.2H13V5.7H7.2V11.2z"/>
	</g>
	<polygon class="st2" points="9.2,10.3 8,10.3 10.7,6.7 11.9,6.7 	"/>
	<polygon class="st2" points="10.9,10.3 12.2,10.3 9.4,6.7 8.2,6.7 	"/>
</g>
</svg>
