<?xml version="1.0" encoding="utf-8"?>
<!-- Generator: Adobe Illustrator 24.1.0, SVG Export Plug-In . SVG Version: 6.00 Build 0)  -->
<svg version="1.1" id="Layer_1" xmlns="http://www.w3.org/2000/svg" xmlns:xlink="http://www.w3.org/1999/xlink" x="0px" y="0px"
	 viewBox="0 0 20 20" style="enable-background:new 0 0 20 20;" xml:space="preserve">
<style type="text/css">
	.st0{fill:#E3E4D8;}
	.st1{fill:#D0CEBD;}
	.st2{fill:#B63539;}
	.st3{fill:#FFFFFF;}
</style>
<g>
	<path class="st0" d="M16.9,18.9H3.3V0.1h10.6l3.1,3.1V18.9z"/>
	<path class="st1" d="M13.8,0.1v3.1h3.1L13.8,0.1z"/>
	<path class="st2" d="M3.3,13.7h13.7v6.1H3.3V13.7z"/>
	<g>
		<path class="st3" d="M5.3,18.9c-0.2,0-0.3-0.2-0.3-0.3v-3.4c0-0.2,0.2-0.3,0.3-0.3c0.2,0,0.3,0.2,0.3,0.3v3.4
			C5.7,18.7,5.5,18.9,5.3,18.9z"/>
		<path class="st3" d="M14.9,15.4h-2c-0.2,0-0.3-0.2-0.3-0.3c0-0.2,0.2-0.3,0.3-0.3h2c0.2,0,0.3,0.2,0.3,0.3
			C15.2,15.3,15.1,15.4,14.9,15.4z"/>
		<path class="st3" d="M14.9,17.1h-2c-0.2,0-0.3-0.2-0.3-0.3c0-0.2,0.2-0.3,0.3-0.3h2c0.2,0,0.3,0.2,0.3,0.3
			C15.2,17,15.1,17.1,14.9,17.1z"/>
		<path class="st3" d="M12.8,18.9c-0.2,0-0.3-0.2-0.3-0.3v-3.4c0-0.2,0.2-0.3,0.3-0.3c0.2,0,0.3,0.2,0.3,0.3v3.4
			C13.2,18.7,13,18.9,12.8,18.9z"/>
	</g>
	<path class="st2" d="M9.8,3.8c0,0-0.5,0.6,0,1.1C10.2,4.1,9.9,3.8,9.8,3.8 M10.1,6.6C9.8,7.4,9.5,8.3,9.1,9.1
		c0.7-0.3,1.5-0.5,2.2-0.7C10.9,7.9,10.4,7.3,10.1,6.6 M12.6,8.8c0.3,0.2,0.3,0.3,0.5,0.3c0.1,0,0.3,0,0.4-0.1
		c0.1-0.1,0.1-0.1,0.1-0.1c0,0-0.1-0.1-0.4-0.1C13,8.8,12.8,8.8,12.6,8.8 M8,10.3c-0.7,0.4-1,0.7-1,0.9c0,0,0,0.1,0.1,0.2
		C7.1,11.4,7.4,11.3,8,10.3 M7,12c-0.1,0-0.2,0-0.3-0.1c-0.4-0.3-0.4-0.6-0.4-0.8c0.1-0.5,0.7-1.1,2-1.7c0.5-1.1,1-2.5,1.3-3.6
		C9.3,5.1,9,4.2,9.2,3.6c0.1-0.2,0.2-0.3,0.4-0.4c0.1,0,0.3-0.1,0.3-0.1c0.2,0,0.3,0.2,0.4,0.4c0.2,0.3,0.2,0.6,0.1,0.8
		c0,0.3-0.1,0.6-0.1,0.8c0,0.2-0.1,0.4-0.1,0.6c0.5,0.9,1.1,1.9,1.7,2.5c0.4-0.1,0.8-0.1,1.1-0.1c0.5,0,0.9,0.1,1,0.4
		C14.2,8.8,14.2,9,14,9.3c-0.2,0.3-0.5,0.4-0.8,0.4c-0.4,0-0.9-0.3-1.4-0.8c-1,0.2-2.1,0.6-3,0.9C8.5,10.5,8.2,11,8,11.3
		C7.6,11.8,7.3,12,7,12"/>
	<path class="st3" d="M6.3,17.5h-1c-0.2,0-0.3-0.2-0.3-0.3v-2c0-0.2,0.2-0.3,0.3-0.3h1c0.8,0,1.4,0.6,1.4,1.4
		C7.7,16.9,7.1,17.5,6.3,17.5z M5.7,16.8h0.7c0.4,0,0.7-0.3,0.7-0.7c0-0.4-0.3-0.7-0.7-0.7H5.7V16.8z"/>
	<path class="st3" d="M9.4,18.9H9.1c-0.2,0-0.3-0.2-0.3-0.3v-3.4c0-0.2,0.2-0.3,0.3-0.3h0.3c1.1,0,2,0.9,2,2S10.5,18.9,9.4,18.9z
		 M9.4,18.2L9.4,18.2L9.4,18.2z M9.4,15.4v2.7c0.8,0,1.4-0.6,1.4-1.4S10.2,15.4,9.4,15.4z"/>
</g>
</svg>
