<?xml version="1.0" encoding="utf-8"?>
<!-- Generator: Adobe Illustrator 24.0.2, SVG Export Plug-In . SVG Version: 6.00 Build 0)  -->
<svg version="1.1" id="Layer_1" xmlns="http://www.w3.org/2000/svg" xmlns:xlink="http://www.w3.org/1999/xlink" x="0px" y="0px"
	 viewBox="0 0 50 50" style="enable-background:new 0 0 50 50;" xml:space="preserve">
<style type="text/css">
	.st0{fill:#FFFFFF;}
</style>
<g id="Layer_2_1_">
	<g>
		<path class="st0" d="M45.7,31.1l-7.4,4l-0.7,0.4c0,0.1,0,0.2,0,0.3c0,0.4-0.3,0.7-0.7,0.7l0,0l-5.1-0.2c-1.5-0.1-3,0-4.5,0.2
			c-0.4,0.1-0.7-0.2-0.8-0.6c-0.1-0.4,0.2-0.7,0.6-0.8l0,0c1.6-0.2,3.2-0.3,4.8-0.2l4.4,0.2C36,33.3,34.4,32,32.6,32h-6
			c-1.2,0-2.3-0.3-3.4-0.8l-0.6-0.3c-3.1-1.5-6.9-1.2-9.7,0.9l-1.5,1.3c-0.7,0.6-1.6,1.1-2.5,1.4l3,9.7l4.2-2.6l0,0
			C17,41.1,18,41,19,41.2l9,1.7c2.2,0.4,4.4,0.1,6.4-0.9l15-10.3C48.3,30.7,46.9,30.5,45.7,31.1z"/>
		<path class="st0" d="M37.6,33.9l5.9-3.2c-0.7-0.6-1.7-1-2.5-0.6l-4.6,2.5c0.4,0.4,0.6,0.9,0.8,1.5L37.6,33.9z"/>
		<path class="st0" d="M6.9,47.8c0.4,0,0.8-0.3,0.8-0.8s-0.3-0.8-0.8-0.8c-0.4,0-0.8,0.3-0.8,0.8C6.1,47.4,6.4,47.8,6.9,47.8z"/>
		<path class="st0" d="M34.9,30L34.9,30l-1.5,0.8c0.7,0.2,1.4,0.4,1.9,0.9l3-1.6C37.4,29.4,36,29.3,34.9,30z"/>
		<path class="st0" d="M0.3,31.3l2.3,18.5H12L6.3,31.3H0.3z M9,47c0,1.2-1,2.1-2.1,2.1s-2.1-1-2.1-2.1c0-1.2,1-2.1,2.1-2.1l0,0
			C8,44.9,9,45.8,9,47z"/>
		<path class="st0" d="M24.9,10.3c2.1,0,3.8-1.7,3.8-3.8V4.3c0-2.1-1.7-3.8-3.8-3.8s-3.8,1.7-3.8,3.8v2.2
			C21.1,8.6,22.8,10.3,24.9,10.3z"/>
		<path class="st0" d="M37.9,11.7c1.8,0,3.2-1.4,3.2-3.2V6.6c0-1.8-1.4-3.2-3.2-3.2s-3.2,1.4-3.2,3.2l0,0v1.9
			C34.7,10.3,36.1,11.7,37.9,11.7z"/>
		<path class="st0" d="M11.9,11.7c1.8,0,3.2-1.4,3.2-3.2V6.6c0-1.8-1.5-3.2-3.2-3.2c-1.8,0-3.2,1.4-3.2,3.2v1.9
			C8.6,10.3,10.1,11.7,11.9,11.7z"/>
		<path class="st0" d="M44.5,18.2c0-1.8-1.3-3.4-3.2-3.7c-1.6,1.8-4.4,2-6.3,0.4c-0.1-0.1-0.3-0.2-0.4-0.4c-0.5,0.1-1,0.2-1.4,0.5
			c0.4,0.8,0.6,1.7,0.6,2.6V22h10.6L44.5,18.2z"/>
		<path class="st0" d="M17.3,17.6v6.6h15.2v-6.6c0-2.2-1.6-4-3.7-4.3c-1.8,2.1-5,2.3-7,0.5c-0.2-0.2-0.3-0.3-0.5-0.5
			C19,13.6,17.3,15.4,17.3,17.6z"/>
		<path class="st0" d="M5.3,18.2V22H16v-4.3c0-0.9,0.2-1.8,0.6-2.6c-0.4-0.2-0.9-0.4-1.3-0.5c-1.6,1.8-4.4,2-6.3,0.4
			c-0.1-0.1-0.3-0.2-0.4-0.4C6.7,14.8,5.3,16.4,5.3,18.2z"/>
	</g>
</g>
</svg>
