<svg id="svg" version="1.1" xmlns="http://www.w3.org/2000/svg" xmlns:xlink="http://www.w3.org/1999/xlink" width="400" height="400" viewBox="0, 0, 400,400"><g id="svgg"><path id="path0" d="M193.000 53.217 C 109.350 57.171,45.632 130.673,53.705 213.900 C 61.785 297.196,136.995 356.780,219.939 345.596 C 297.741 335.106,353.880 264.243,346.294 186.100 C 338.696 107.830,271.419 49.510,193.000 53.217 M299.375 147.335 L 312.212 160.371 240.964 230.488 C 201.778 269.053,169.651 300.582,169.572 300.553 C 169.316 300.459,87.600 216.197,87.600 216.026 C 87.600 215.871,118.852 185.436,120.023 184.450 L 120.570 183.990 145.425 209.598 C 159.096 223.683,170.349 235.182,170.432 235.153 C 170.516 235.124,195.170 210.903,225.220 181.329 L 279.856 127.558 283.197 130.929 C 285.035 132.783,292.315 140.166,299.375 147.335 " stroke="none" fill="#fbfbfb" fill-rule="evenodd"></path><path id="path1" d="M189.100 7.219 C 91.217 12.442,12.375 91.536,7.202 189.700 C 1.778 292.630,77.967 381.661,180.400 392.089 C 187.367 392.798,189.655 392.892,200.000 392.892 C 210.345 392.892,212.633 392.798,219.600 392.089 C 310.704 382.814,382.814 310.704,392.089 219.600 C 392.798 212.633,392.892 210.345,392.892 200.000 C 392.892 189.655,392.798 187.367,392.089 180.400 C 381.635 77.712,292.540 1.701,189.100 7.219 M209.200 53.205 C 296.941 59.287,359.397 138.164,344.991 224.700 C 331.720 304.419,255.623 358.363,175.300 344.991 C 110.647 334.228,60.213 280.391,53.715 215.200 C 45.399 131.780,106.714 59.119,190.400 53.219 C 193.774 52.981,205.842 52.972,209.200 53.205 M225.100 181.602 C 195.070 211.180,170.434 235.362,170.354 235.340 C 170.273 235.318,159.069 223.825,145.455 209.800 C 131.842 195.775,120.607 184.300,120.489 184.300 C 120.371 184.300,112.922 191.441,103.935 200.169 L 87.595 216.038 93.173 221.769 C 96.241 224.921,114.648 243.880,134.076 263.900 C 153.504 283.920,169.478 300.326,169.574 300.358 C 169.750 300.417,311.900 160.620,311.900 160.388 C 311.900 160.215,279.980 127.797,279.824 127.812 C 279.756 127.819,255.130 152.025,225.100 181.602 " stroke="none" fill="#2ca32c" fill-rule="evenodd"></path><path id="path2" d="M281.800 129.700 C 282.397 130.305,282.931 130.800,282.986 130.800 C 283.041 130.800,282.597 130.305,282.000 129.700 C 281.403 129.095,280.869 128.600,280.814 128.600 C 280.759 128.600,281.203 129.095,281.800 129.700 M273.294 134.050 L 272.100 135.300 273.350 134.106 C 274.038 133.450,274.600 132.887,274.600 132.856 C 274.600 132.708,274.403 132.889,273.294 134.050 M294.200 142.300 C 294.797 142.905,295.331 143.400,295.386 143.400 C 295.441 143.400,294.997 142.905,294.400 142.300 C 293.803 141.695,293.269 141.200,293.214 141.200 C 293.159 141.200,293.603 141.695,294.200 142.300 M260.694 146.450 L 259.500 147.700 260.750 146.506 C 261.438 145.850,262.000 145.287,262.000 145.256 C 262.000 145.108,261.803 145.289,260.694 146.450 M306.600 154.900 C 307.197 155.505,307.731 156.000,307.786 156.000 C 307.841 156.000,307.397 155.505,306.800 154.900 C 306.203 154.295,305.669 153.800,305.614 153.800 C 305.559 153.800,306.003 154.295,306.600 154.900 M248.094 158.850 L 246.900 160.100 248.150 158.906 C 249.311 157.797,249.492 157.600,249.344 157.600 C 249.313 157.600,248.750 158.163,248.094 158.850 M305.894 166.450 L 304.700 167.700 305.950 166.506 C 306.637 165.850,307.200 165.287,307.200 165.256 C 307.200 165.108,307.003 165.289,305.894 166.450 M235.494 171.250 L 234.300 172.500 235.550 171.306 C 236.711 170.197,236.892 170.000,236.744 170.000 C 236.713 170.000,236.150 170.563,235.494 171.250 M293.294 178.850 L 292.100 180.100 293.350 178.906 C 294.038 178.250,294.600 177.687,294.600 177.656 C 294.600 177.508,294.403 177.689,293.294 178.850 M222.894 183.650 L 221.700 184.900 222.950 183.706 C 224.111 182.597,224.292 182.400,224.144 182.400 C 224.113 182.400,223.550 182.963,222.894 183.650 M123.000 186.663 C 123.000 186.697,123.293 186.990,123.650 187.313 L 124.300 187.900 123.713 187.250 C 123.165 186.644,123.000 186.508,123.000 186.663 M116.487 187.850 L 115.900 188.500 116.550 187.913 C 116.908 187.590,117.200 187.297,117.200 187.263 C 117.200 187.108,117.035 187.244,116.487 187.850 M280.694 191.250 L 279.500 192.500 280.750 191.306 C 281.911 190.197,282.092 190.000,281.944 190.000 C 281.913 190.000,281.350 190.563,280.694 191.250 M129.600 193.463 C 129.600 193.497,129.893 193.790,130.250 194.113 L 130.900 194.700 130.313 194.050 C 129.765 193.444,129.600 193.308,129.600 193.463 M109.687 194.450 L 109.100 195.100 109.750 194.513 C 110.108 194.190,110.400 193.897,110.400 193.863 C 110.400 193.708,110.235 193.844,109.687 194.450 M210.294 196.050 L 209.100 197.300 210.350 196.106 C 211.511 194.997,211.692 194.800,211.544 194.800 C 211.513 194.800,210.950 195.363,210.294 196.050 M136.200 200.263 C 136.200 200.297,136.493 200.590,136.850 200.913 L 137.500 201.500 136.913 200.850 C 136.365 200.244,136.200 200.108,136.200 200.263 M102.887 201.050 L 102.300 201.700 102.950 201.113 C 103.308 200.790,103.600 200.497,103.600 200.463 C 103.600 200.308,103.435 200.444,102.887 201.050 M268.094 203.650 L 266.900 204.900 268.150 203.706 C 269.311 202.597,269.492 202.400,269.344 202.400 C 269.313 202.400,268.750 202.963,268.094 203.650 M96.087 207.650 L 95.500 208.300 96.150 207.713 C 96.756 207.165,96.892 207.000,96.737 207.000 C 96.703 207.000,96.410 207.293,96.087 207.650 M142.800 207.063 C 142.800 207.097,143.093 207.390,143.450 207.713 L 144.100 208.300 143.513 207.650 C 142.965 207.044,142.800 206.908,142.800 207.063 M197.694 208.450 L 196.500 209.700 197.750 208.506 C 198.438 207.850,199.000 207.287,199.000 207.256 C 199.000 207.108,198.803 207.289,197.694 208.450 M89.287 214.250 L 88.700 214.900 89.350 214.313 C 89.956 213.765,90.092 213.600,89.937 213.600 C 89.903 213.600,89.610 213.893,89.287 214.250 M149.400 213.863 C 149.400 213.897,149.692 214.190,150.050 214.513 L 150.700 215.100 150.113 214.450 C 149.565 213.844,149.400 213.708,149.400 213.863 M255.494 216.050 L 254.300 217.300 255.550 216.106 C 256.711 214.997,256.892 214.800,256.744 214.800 C 256.713 214.800,256.150 215.363,255.494 216.050 M90.400 219.063 C 90.400 219.097,90.692 219.390,91.050 219.713 L 91.700 220.300 91.113 219.650 C 90.565 219.044,90.400 218.908,90.400 219.063 M185.094 220.850 L 183.900 222.100 185.150 220.906 C 185.838 220.250,186.400 219.687,186.400 219.656 C 186.400 219.508,186.203 219.689,185.094 220.850 M156.000 220.663 C 156.000 220.697,156.293 220.990,156.650 221.313 L 157.300 221.900 156.713 221.250 C 156.165 220.644,156.000 220.508,156.000 220.663 M97.000 225.863 C 97.000 225.897,97.293 226.190,97.650 226.513 L 98.300 227.100 97.713 226.450 C 97.165 225.844,97.000 225.708,97.000 225.863 M242.894 228.450 L 241.700 229.700 242.950 228.506 C 244.111 227.397,244.292 227.200,244.144 227.200 C 244.113 227.200,243.550 227.763,242.894 228.450 M162.600 227.463 C 162.600 227.497,162.893 227.790,163.250 228.113 L 163.900 228.700 163.313 228.050 C 162.765 227.444,162.600 227.308,162.600 227.463 M172.494 233.250 L 171.300 234.500 172.550 233.306 C 173.238 232.650,173.800 232.087,173.800 232.056 C 173.800 231.908,173.603 232.089,172.494 233.250 M103.600 232.663 C 103.600 232.697,103.892 232.990,104.250 233.313 L 104.900 233.900 104.313 233.250 C 103.765 232.644,103.600 232.508,103.600 232.663 M169.200 234.263 C 169.200 234.297,169.493 234.590,169.850 234.913 L 170.500 235.500 169.913 234.850 C 169.365 234.244,169.200 234.108,169.200 234.263 M110.200 239.463 C 110.200 239.497,110.493 239.790,110.850 240.113 L 111.500 240.700 110.913 240.050 C 110.365 239.444,110.200 239.308,110.200 239.463 M230.294 240.850 L 229.100 242.100 230.350 240.906 C 231.511 239.797,231.692 239.600,231.544 239.600 C 231.513 239.600,230.950 240.163,230.294 240.850 M116.800 246.263 C 116.800 246.297,117.093 246.590,117.450 246.913 L 118.100 247.500 117.513 246.850 C 116.965 246.244,116.800 246.108,116.800 246.263 M217.694 253.250 L 216.500 254.500 217.750 253.306 C 218.911 252.197,219.092 252.000,218.944 252.000 C 218.913 252.000,218.350 252.563,217.694 253.250 M123.400 253.063 C 123.400 253.097,123.692 253.390,124.050 253.713 L 124.700 254.300 124.113 253.650 C 123.565 253.044,123.400 252.908,123.400 253.063 M130.000 259.863 C 130.000 259.897,130.292 260.190,130.650 260.513 L 131.300 261.100 130.713 260.450 C 130.165 259.844,130.000 259.708,130.000 259.863 M205.094 265.650 L 203.900 266.900 205.150 265.706 C 206.311 264.597,206.492 264.400,206.344 264.400 C 206.313 264.400,205.750 264.963,205.094 265.650 M136.600 266.663 C 136.600 266.697,136.893 266.990,137.250 267.313 L 137.900 267.900 137.313 267.250 C 136.765 266.644,136.600 266.508,136.600 266.663 M143.200 273.463 C 143.200 273.497,143.493 273.790,143.850 274.113 L 144.500 274.700 143.913 274.050 C 143.365 273.444,143.200 273.308,143.200 273.463 M192.494 278.050 L 191.300 279.300 192.550 278.106 C 193.238 277.450,193.800 276.887,193.800 276.856 C 193.800 276.708,193.603 276.889,192.494 278.050 M149.800 280.263 C 149.800 280.297,150.093 280.590,150.450 280.913 L 151.100 281.500 150.513 280.850 C 149.965 280.244,149.800 280.108,149.800 280.263 M156.400 287.063 C 156.400 287.097,156.692 287.390,157.050 287.713 L 157.700 288.300 157.113 287.650 C 156.565 287.044,156.400 286.908,156.400 287.063 M179.894 290.450 L 178.700 291.700 179.950 290.506 C 180.638 289.850,181.200 289.287,181.200 289.256 C 181.200 289.108,181.003 289.289,179.894 290.450 M163.000 293.863 C 163.000 293.897,163.293 294.190,163.650 294.513 L 164.300 295.100 163.713 294.450 C 163.165 293.844,163.000 293.708,163.000 293.863 " stroke="none" fill="#7ac47a" fill-rule="evenodd"></path><path id="path3" d="M194.650 53.143 C 194.953 53.189,195.447 53.189,195.750 53.143 C 196.053 53.097,195.805 53.060,195.200 53.060 C 194.595 53.060,194.347 53.097,194.650 53.143 M204.250 53.143 C 204.553 53.189,205.048 53.189,205.350 53.143 C 205.653 53.097,205.405 53.060,204.800 53.060 C 204.195 53.060,203.947 53.097,204.250 53.143 M98.487 93.650 L 97.900 94.300 98.550 93.713 C 98.908 93.390,99.200 93.097,99.200 93.063 C 99.200 92.908,99.035 93.044,98.487 93.650 M301.400 93.700 C 301.773 94.085,302.123 94.400,302.178 94.400 C 302.233 94.400,301.973 94.085,301.600 93.700 C 301.227 93.315,300.877 93.000,300.822 93.000 C 300.767 93.000,301.027 93.315,301.400 93.700 M306.200 98.500 C 306.573 98.885,306.923 99.200,306.978 99.200 C 307.033 99.200,306.773 98.885,306.400 98.500 C 306.027 98.115,305.677 97.800,305.622 97.800 C 305.567 97.800,305.827 98.115,306.200 98.500 M93.487 98.650 L 92.900 99.300 93.550 98.713 C 93.908 98.390,94.200 98.097,94.200 98.063 C 94.200 97.908,94.035 98.044,93.487 98.650 M276.596 130.750 L 274.500 132.900 276.650 130.804 C 277.832 129.651,278.800 128.683,278.800 128.654 C 278.800 128.509,278.544 128.753,276.596 130.750 M285.100 133.000 C 286.306 134.210,287.338 135.200,287.393 135.200 C 287.448 135.200,286.506 134.210,285.300 133.000 C 284.094 131.790,283.062 130.800,283.007 130.800 C 282.952 130.800,283.894 131.790,285.100 133.000 M263.996 143.150 L 261.900 145.300 264.050 143.204 C 266.047 141.256,266.291 141.000,266.146 141.000 C 266.117 141.000,265.149 141.968,263.996 143.150 M297.500 145.600 C 298.706 146.810,299.738 147.800,299.793 147.800 C 299.848 147.800,298.906 146.810,297.700 145.600 C 296.494 144.390,295.462 143.400,295.407 143.400 C 295.352 143.400,296.294 144.390,297.500 145.600 M251.396 155.550 L 249.300 157.700 251.450 155.604 C 253.447 153.656,253.691 153.400,253.546 153.400 C 253.517 153.400,252.549 154.368,251.396 155.550 M309.900 158.200 C 311.106 159.410,312.138 160.400,312.193 160.400 C 312.248 160.400,311.306 159.410,310.100 158.200 C 308.894 156.990,307.862 156.000,307.807 156.000 C 307.752 156.000,308.694 156.990,309.900 158.200 M238.796 167.950 L 236.700 170.100 238.850 168.004 C 240.847 166.056,241.091 165.800,240.946 165.800 C 240.917 165.800,239.949 166.768,238.796 167.950 M302.596 169.750 L 300.500 171.900 302.650 169.804 C 304.647 167.856,304.891 167.600,304.746 167.600 C 304.717 167.600,303.749 168.567,302.596 169.750 M226.196 180.350 L 224.100 182.500 226.250 180.404 C 228.247 178.456,228.491 178.200,228.346 178.200 C 228.317 178.200,227.349 179.168,226.196 180.350 M289.996 182.150 L 287.900 184.300 290.050 182.204 C 292.047 180.256,292.291 180.000,292.146 180.000 C 292.117 180.000,291.149 180.968,289.996 182.150 M118.294 186.050 L 117.100 187.300 118.350 186.106 C 119.038 185.450,119.600 184.887,119.600 184.856 C 119.600 184.708,119.403 184.889,118.294 186.050 M125.300 189.000 C 125.953 189.660,126.532 190.200,126.587 190.200 C 126.642 190.200,126.153 189.660,125.500 189.000 C 124.847 188.340,124.268 187.800,124.213 187.800 C 124.158 187.800,124.647 188.340,125.300 189.000 M213.596 192.750 L 211.500 194.900 213.650 192.804 C 215.647 190.856,215.891 190.600,215.746 190.600 C 215.717 190.600,214.749 191.567,213.596 192.750 M111.494 192.650 L 110.300 193.900 111.550 192.706 C 112.238 192.050,112.800 191.487,112.800 191.456 C 112.800 191.308,112.603 191.489,111.494 192.650 M277.396 194.550 L 275.300 196.700 277.450 194.604 C 279.447 192.656,279.691 192.400,279.546 192.400 C 279.517 192.400,278.549 193.368,277.396 194.550 M53.054 195.000 C 53.054 195.495,53.093 195.697,53.141 195.450 C 53.189 195.203,53.189 194.798,53.141 194.550 C 53.093 194.303,53.054 194.505,53.054 195.000 M346.857 195.100 C 346.859 195.650,346.898 195.851,346.944 195.547 C 346.989 195.243,346.988 194.793,346.941 194.547 C 346.893 194.301,346.856 194.550,346.857 195.100 M131.900 195.800 C 132.553 196.460,133.132 197.000,133.187 197.000 C 133.242 197.000,132.753 196.460,132.100 195.800 C 131.447 195.140,130.868 194.600,130.813 194.600 C 130.758 194.600,131.247 195.140,131.900 195.800 M104.694 199.250 L 103.500 200.500 104.750 199.306 C 105.438 198.650,106.000 198.087,106.000 198.056 C 106.000 197.908,105.803 198.089,104.694 199.250 M138.500 202.600 C 139.153 203.260,139.732 203.800,139.787 203.800 C 139.842 203.800,139.353 203.260,138.700 202.600 C 138.047 201.940,137.468 201.400,137.413 201.400 C 137.358 201.400,137.847 201.940,138.500 202.600 M200.996 205.150 L 198.900 207.300 201.050 205.204 C 203.047 203.256,203.291 203.000,203.146 203.000 C 203.117 203.000,202.149 203.968,200.996 205.150 M346.857 204.900 C 346.859 205.450,346.898 205.651,346.944 205.347 C 346.989 205.043,346.988 204.593,346.941 204.347 C 346.893 204.101,346.856 204.350,346.857 204.900 M53.054 205.000 C 53.054 205.495,53.093 205.697,53.141 205.450 C 53.189 205.203,53.189 204.798,53.141 204.550 C 53.093 204.303,53.054 204.505,53.054 205.000 M97.894 205.850 L 96.700 207.100 97.950 205.906 C 99.111 204.797,99.292 204.600,99.144 204.600 C 99.113 204.600,98.550 205.163,97.894 205.850 M264.796 206.950 L 262.700 209.100 264.850 207.004 C 266.032 205.851,267.000 204.883,267.000 204.854 C 267.000 204.709,266.744 204.953,264.796 206.950 M145.100 209.400 C 145.753 210.060,146.332 210.600,146.387 210.600 C 146.442 210.600,145.953 210.060,145.300 209.400 C 144.647 208.740,144.068 208.200,144.013 208.200 C 143.958 208.200,144.447 208.740,145.100 209.400 M91.094 212.450 L 89.900 213.700 91.150 212.506 C 92.311 211.397,92.492 211.200,92.344 211.200 C 92.313 211.200,91.750 211.763,91.094 212.450 M151.700 216.200 C 152.353 216.860,152.932 217.400,152.987 217.400 C 153.042 217.400,152.553 216.860,151.900 216.200 C 151.247 215.540,150.668 215.000,150.613 215.000 C 150.558 215.000,151.047 215.540,151.700 216.200 M188.396 217.550 L 186.300 219.700 188.450 217.604 C 189.633 216.451,190.600 215.483,190.600 215.454 C 190.600 215.309,190.344 215.553,188.396 217.550 M89.100 217.800 C 89.753 218.460,90.332 219.000,90.387 219.000 C 90.442 219.000,89.953 218.460,89.300 217.800 C 88.647 217.140,88.068 216.600,88.013 216.600 C 87.958 216.600,88.447 217.140,89.100 217.800 M252.196 219.350 L 250.100 221.500 252.250 219.404 C 253.433 218.251,254.400 217.283,254.400 217.254 C 254.400 217.109,254.144 217.353,252.196 219.350 M158.300 223.000 C 158.953 223.660,159.532 224.200,159.587 224.200 C 159.642 224.200,159.153 223.660,158.500 223.000 C 157.847 222.340,157.268 221.800,157.213 221.800 C 157.158 221.800,157.647 222.340,158.300 223.000 M95.700 224.600 C 96.353 225.260,96.932 225.800,96.987 225.800 C 97.042 225.800,96.553 225.260,95.900 224.600 C 95.247 223.940,94.668 223.400,94.613 223.400 C 94.558 223.400,95.047 223.940,95.700 224.600 M175.796 229.950 L 173.700 232.100 175.850 230.004 C 177.033 228.851,178.000 227.883,178.000 227.854 C 178.000 227.709,177.744 227.953,175.796 229.950 M164.900 229.800 C 165.553 230.460,166.132 231.000,166.187 231.000 C 166.242 231.000,165.753 230.460,165.100 229.800 C 164.447 229.140,163.868 228.600,163.813 228.600 C 163.758 228.600,164.247 229.140,164.900 229.800 M239.596 231.750 L 237.500 233.900 239.650 231.804 C 240.832 230.651,241.800 229.683,241.800 229.654 C 241.800 229.509,241.544 229.753,239.596 231.750 M102.300 231.400 C 102.953 232.060,103.532 232.600,103.587 232.600 C 103.642 232.600,103.153 232.060,102.500 231.400 C 101.847 230.740,101.268 230.200,101.213 230.200 C 101.158 230.200,101.647 230.740,102.300 231.400 M108.900 238.200 C 109.553 238.860,110.132 239.400,110.187 239.400 C 110.242 239.400,109.753 238.860,109.100 238.200 C 108.447 237.540,107.868 237.000,107.813 237.000 C 107.758 237.000,108.247 237.540,108.900 238.200 M226.996 244.150 L 224.900 246.300 227.050 244.204 C 228.232 243.051,229.200 242.083,229.200 242.054 C 229.200 241.909,228.944 242.153,226.996 244.150 M115.500 245.000 C 116.153 245.660,116.732 246.200,116.787 246.200 C 116.842 246.200,116.353 245.660,115.700 245.000 C 115.047 244.340,114.468 243.800,114.413 243.800 C 114.358 243.800,114.847 244.340,115.500 245.000 M122.100 251.800 C 122.753 252.460,123.332 253.000,123.387 253.000 C 123.442 253.000,122.953 252.460,122.300 251.800 C 121.647 251.140,121.068 250.600,121.013 250.600 C 120.958 250.600,121.447 251.140,122.100 251.800 M214.396 256.550 L 212.300 258.700 214.450 256.604 C 215.632 255.451,216.600 254.483,216.600 254.454 C 216.600 254.309,216.344 254.553,214.396 256.550 M128.700 258.600 C 129.353 259.260,129.932 259.800,129.987 259.800 C 130.042 259.800,129.553 259.260,128.900 258.600 C 128.247 257.940,127.668 257.400,127.613 257.400 C 127.558 257.400,128.047 257.940,128.700 258.600 M135.300 265.400 C 135.953 266.060,136.532 266.600,136.587 266.600 C 136.642 266.600,136.153 266.060,135.500 265.400 C 134.847 264.740,134.268 264.200,134.213 264.200 C 134.158 264.200,134.647 264.740,135.300 265.400 M201.796 268.950 L 199.700 271.100 201.850 269.004 C 203.033 267.851,204.000 266.883,204.000 266.854 C 204.000 266.709,203.744 266.953,201.796 268.950 M141.900 272.200 C 142.553 272.860,143.132 273.400,143.187 273.400 C 143.242 273.400,142.753 272.860,142.100 272.200 C 141.447 271.540,140.868 271.000,140.813 271.000 C 140.758 271.000,141.247 271.540,141.900 272.200 M148.500 279.000 C 149.153 279.660,149.732 280.200,149.787 280.200 C 149.842 280.200,149.353 279.660,148.700 279.000 C 148.047 278.340,147.468 277.800,147.413 277.800 C 147.358 277.800,147.847 278.340,148.500 279.000 M189.196 281.350 L 187.100 283.500 189.250 281.404 C 190.433 280.251,191.400 279.283,191.400 279.254 C 191.400 279.109,191.144 279.353,189.196 281.350 M155.100 285.800 C 155.753 286.460,156.332 287.000,156.387 287.000 C 156.442 287.000,155.953 286.460,155.300 285.800 C 154.647 285.140,154.068 284.600,154.013 284.600 C 153.958 284.600,154.447 285.140,155.100 285.800 M161.700 292.600 C 162.353 293.260,162.932 293.800,162.987 293.800 C 163.042 293.800,162.553 293.260,161.900 292.600 C 161.247 291.940,160.668 291.400,160.613 291.400 C 160.558 291.400,161.047 291.940,161.700 292.600 M176.596 293.750 L 174.500 295.900 176.650 293.804 C 177.833 292.651,178.800 291.683,178.800 291.654 C 178.800 291.509,178.544 291.753,176.596 293.750 M168.300 299.400 C 168.953 300.060,169.532 300.600,169.587 300.600 C 169.642 300.600,169.153 300.060,168.500 299.400 C 167.847 298.740,167.268 298.200,167.213 298.200 C 167.158 298.200,167.647 298.740,168.300 299.400 M93.600 301.500 C 93.973 301.885,94.323 302.200,94.378 302.200 C 94.433 302.200,94.173 301.885,93.800 301.500 C 93.427 301.115,93.077 300.800,93.022 300.800 C 92.967 300.800,93.227 301.115,93.600 301.500 M306.087 301.650 L 305.500 302.300 306.150 301.713 C 306.756 301.165,306.892 301.000,306.737 301.000 C 306.703 301.000,306.410 301.293,306.087 301.650 M98.400 306.300 C 98.773 306.685,99.123 307.000,99.178 307.000 C 99.233 307.000,98.973 306.685,98.600 306.300 C 98.227 305.915,97.877 305.600,97.822 305.600 C 97.767 305.600,98.027 305.915,98.400 306.300 M301.487 306.250 L 300.900 306.900 301.550 306.313 C 302.156 305.765,302.292 305.600,302.137 305.600 C 302.103 305.600,301.810 305.893,301.487 306.250 M194.754 346.945 C 195.113 346.989,195.653 346.989,195.954 346.943 C 196.254 346.897,195.960 346.861,195.300 346.862 C 194.640 346.863,194.394 346.900,194.754 346.945 M204.154 346.945 C 204.513 346.989,205.053 346.989,205.354 346.943 C 205.654 346.897,205.360 346.861,204.700 346.862 C 204.040 346.863,203.794 346.900,204.154 346.945 " stroke="none" fill="#9cd49c" fill-rule="evenodd"></path><path id="path4" d="M270.296 137.050 L 268.500 138.900 270.350 137.104 C 271.368 136.116,272.200 135.284,272.200 135.254 C 272.200 135.109,271.964 135.332,270.296 137.050 M291.100 139.200 C 292.196 140.300,293.137 141.200,293.192 141.200 C 293.247 141.200,292.396 140.300,291.300 139.200 C 290.204 138.100,289.263 137.200,289.208 137.200 C 289.153 137.200,290.004 138.100,291.100 139.200 M257.696 149.450 L 255.900 151.300 257.750 149.504 C 258.768 148.516,259.600 147.684,259.600 147.654 C 259.600 147.509,259.364 147.732,257.696 149.450 M303.500 151.800 C 304.596 152.900,305.537 153.800,305.592 153.800 C 305.647 153.800,304.796 152.900,303.700 151.800 C 302.604 150.700,301.663 149.800,301.608 149.800 C 301.553 149.800,302.404 150.700,303.500 151.800 M245.096 161.850 L 243.300 163.700 245.150 161.904 C 246.168 160.916,247.000 160.084,247.000 160.054 C 247.000 159.909,246.764 160.132,245.096 161.850 M308.896 163.450 L 307.100 165.300 308.950 163.504 C 309.968 162.516,310.800 161.684,310.800 161.654 C 310.800 161.509,310.564 161.732,308.896 163.450 M232.496 174.250 L 230.700 176.100 232.550 174.304 C 234.268 172.636,234.491 172.400,234.346 172.400 C 234.316 172.400,233.484 173.233,232.496 174.250 M296.296 175.850 L 294.500 177.700 296.350 175.904 C 298.068 174.236,298.291 174.000,298.146 174.000 C 298.116 174.000,297.284 174.833,296.296 175.850 M121.900 185.600 C 122.442 186.150,122.930 186.600,122.985 186.600 C 123.040 186.600,122.642 186.150,122.100 185.600 C 121.558 185.050,121.070 184.600,121.015 184.600 C 120.960 184.600,121.358 185.050,121.900 185.600 M219.896 186.650 L 218.100 188.500 219.950 186.704 C 221.668 185.036,221.891 184.800,221.746 184.800 C 221.716 184.800,220.884 185.633,219.896 186.650 M283.696 188.250 L 281.900 190.100 283.750 188.304 C 285.468 186.636,285.691 186.400,285.546 186.400 C 285.516 186.400,284.684 187.233,283.696 188.250 M114.892 189.450 L 113.900 190.500 114.950 189.508 C 115.926 188.585,116.092 188.400,115.942 188.400 C 115.911 188.400,115.438 188.873,114.892 189.450 M128.500 192.400 C 129.042 192.950,129.530 193.400,129.585 193.400 C 129.640 193.400,129.242 192.950,128.700 192.400 C 128.158 191.850,127.670 191.400,127.615 191.400 C 127.560 191.400,127.958 191.850,128.500 192.400 M108.092 196.050 L 107.100 197.100 108.150 196.108 C 108.728 195.562,109.200 195.089,109.200 195.058 C 109.200 194.908,109.015 195.074,108.092 196.050 M207.296 199.050 L 205.500 200.900 207.350 199.104 C 208.368 198.116,209.200 197.284,209.200 197.254 C 209.200 197.109,208.964 197.332,207.296 199.050 M135.100 199.200 C 135.642 199.750,136.130 200.200,136.185 200.200 C 136.240 200.200,135.842 199.750,135.300 199.200 C 134.758 198.650,134.270 198.200,134.215 198.200 C 134.160 198.200,134.558 198.650,135.100 199.200 M271.096 200.650 L 269.300 202.500 271.150 200.704 C 272.168 199.716,273.000 198.884,273.000 198.854 C 273.000 198.709,272.764 198.932,271.096 200.650 M101.292 202.650 L 100.300 203.700 101.350 202.708 C 101.928 202.162,102.400 201.689,102.400 201.658 C 102.400 201.508,102.215 201.674,101.292 202.650 M141.700 206.000 C 142.242 206.550,142.730 207.000,142.785 207.000 C 142.840 207.000,142.442 206.550,141.900 206.000 C 141.358 205.450,140.870 205.000,140.815 205.000 C 140.760 205.000,141.158 205.450,141.700 206.000 M94.492 209.250 L 93.500 210.300 94.550 209.308 C 95.526 208.385,95.692 208.200,95.542 208.200 C 95.511 208.200,95.038 208.673,94.492 209.250 M194.696 211.450 L 192.900 213.300 194.750 211.504 C 195.768 210.516,196.600 209.684,196.600 209.654 C 196.600 209.509,196.364 209.732,194.696 211.450 M258.496 213.050 L 256.700 214.900 258.550 213.104 C 260.268 211.436,260.491 211.200,260.346 211.200 C 260.316 211.200,259.484 212.032,258.496 213.050 M148.300 212.800 C 148.842 213.350,149.330 213.800,149.385 213.800 C 149.440 213.800,149.042 213.350,148.500 212.800 C 147.958 212.250,147.470 211.800,147.415 211.800 C 147.360 211.800,147.758 212.250,148.300 212.800 M88.087 215.450 L 87.500 216.100 88.150 215.513 C 88.756 214.965,88.892 214.800,88.737 214.800 C 88.703 214.800,88.410 215.093,88.087 215.450 M154.900 219.600 C 155.442 220.150,155.930 220.600,155.985 220.600 C 156.040 220.600,155.642 220.150,155.100 219.600 C 154.558 219.050,154.070 218.600,154.015 218.600 C 153.960 218.600,154.358 219.050,154.900 219.600 M92.500 221.200 C 93.042 221.750,93.530 222.200,93.585 222.200 C 93.640 222.200,93.242 221.750,92.700 221.200 C 92.158 220.650,91.670 220.200,91.615 220.200 C 91.560 220.200,91.958 220.650,92.500 221.200 M182.096 223.850 L 180.300 225.700 182.150 223.904 C 183.868 222.236,184.091 222.000,183.946 222.000 C 183.916 222.000,183.084 222.832,182.096 223.850 M245.896 225.450 L 244.100 227.300 245.950 225.504 C 246.968 224.516,247.800 223.684,247.800 223.654 C 247.800 223.509,247.564 223.732,245.896 225.450 M161.500 226.400 C 162.042 226.950,162.530 227.400,162.585 227.400 C 162.640 227.400,162.242 226.950,161.700 226.400 C 161.158 225.850,160.670 225.400,160.615 225.400 C 160.560 225.400,160.958 225.850,161.500 226.400 M99.100 228.000 C 99.642 228.550,100.130 229.000,100.185 229.000 C 100.240 229.000,99.842 228.550,99.300 228.000 C 98.758 227.450,98.270 227.000,98.215 227.000 C 98.160 227.000,98.558 227.450,99.100 228.000 M168.100 233.200 C 168.642 233.750,169.130 234.200,169.185 234.200 C 169.240 234.200,168.842 233.750,168.300 233.200 C 167.758 232.650,167.270 232.200,167.215 232.200 C 167.160 232.200,167.558 232.650,168.100 233.200 M105.700 234.800 C 106.242 235.350,106.730 235.800,106.785 235.800 C 106.840 235.800,106.442 235.350,105.900 234.800 C 105.358 234.250,104.870 233.800,104.815 233.800 C 104.760 233.800,105.158 234.250,105.700 234.800 M233.296 237.850 L 231.500 239.700 233.350 237.904 C 235.068 236.236,235.291 236.000,235.146 236.000 C 235.116 236.000,234.284 236.832,233.296 237.850 M112.300 241.600 C 112.842 242.150,113.330 242.600,113.385 242.600 C 113.440 242.600,113.042 242.150,112.500 241.600 C 111.958 241.050,111.470 240.600,111.415 240.600 C 111.360 240.600,111.758 241.050,112.300 241.600 M118.900 248.400 C 119.442 248.950,119.930 249.400,119.985 249.400 C 120.040 249.400,119.642 248.950,119.100 248.400 C 118.558 247.850,118.070 247.400,118.015 247.400 C 117.960 247.400,118.358 247.850,118.900 248.400 M220.696 250.250 L 218.900 252.100 220.750 250.304 C 221.768 249.316,222.600 248.484,222.600 248.454 C 222.600 248.309,222.364 248.532,220.696 250.250 M125.500 255.200 C 126.042 255.750,126.530 256.200,126.585 256.200 C 126.640 256.200,126.242 255.750,125.700 255.200 C 125.158 254.650,124.670 254.200,124.615 254.200 C 124.560 254.200,124.958 254.650,125.500 255.200 M208.096 262.650 L 206.300 264.500 208.150 262.704 C 209.168 261.716,210.000 260.884,210.000 260.854 C 210.000 260.709,209.764 260.932,208.096 262.650 M132.100 262.000 C 132.642 262.550,133.130 263.000,133.185 263.000 C 133.240 263.000,132.842 262.550,132.300 262.000 C 131.758 261.450,131.270 261.000,131.215 261.000 C 131.160 261.000,131.558 261.450,132.100 262.000 M138.700 268.800 C 139.242 269.350,139.730 269.800,139.785 269.800 C 139.840 269.800,139.442 269.350,138.900 268.800 C 138.358 268.250,137.870 267.800,137.815 267.800 C 137.760 267.800,138.158 268.250,138.700 268.800 M195.496 275.050 L 193.700 276.900 195.550 275.104 C 196.567 274.116,197.400 273.284,197.400 273.254 C 197.400 273.109,197.164 273.332,195.496 275.050 M145.300 275.600 C 145.842 276.150,146.330 276.600,146.385 276.600 C 146.440 276.600,146.042 276.150,145.500 275.600 C 144.958 275.050,144.470 274.600,144.415 274.600 C 144.360 274.600,144.758 275.050,145.300 275.600 M151.900 282.400 C 152.442 282.950,152.930 283.400,152.985 283.400 C 153.040 283.400,152.642 282.950,152.100 282.400 C 151.558 281.850,151.070 281.400,151.015 281.400 C 150.960 281.400,151.358 281.850,151.900 282.400 M182.896 287.450 L 181.100 289.300 182.950 287.504 C 183.968 286.516,184.800 285.684,184.800 285.654 C 184.800 285.509,184.564 285.732,182.896 287.450 M158.500 289.200 C 159.042 289.750,159.530 290.200,159.585 290.200 C 159.640 290.200,159.242 289.750,158.700 289.200 C 158.158 288.650,157.670 288.200,157.615 288.200 C 157.560 288.200,157.958 288.650,158.500 289.200 M165.100 296.000 C 165.642 296.550,166.130 297.000,166.185 297.000 C 166.240 297.000,165.842 296.550,165.300 296.000 C 164.758 295.450,164.270 295.000,164.215 295.000 C 164.160 295.000,164.558 295.450,165.100 296.000 M170.794 299.350 L 169.500 300.700 170.850 299.406 C 172.104 298.204,172.291 298.000,172.144 298.000 C 172.114 298.000,171.506 298.608,170.794 299.350 " stroke="none" fill="#56b456" fill-rule="evenodd"></path></g></svg>