<svg id="svg" version="1.1" xmlns="http://www.w3.org/2000/svg" xmlns:xlink="http://www.w3.org/1999/xlink" width="400" height="400" viewBox="0, 0, 400,400"><g id="svgg"><path id="path0" d="M192.833 19.184 C 187.844 19.379,183.089 19.778,177.000 20.511 C 174.016 20.871,167.905 21.856,165.083 22.432 C 163.983 22.657,162.521 22.954,161.833 23.091 C 161.146 23.229,160.133 23.451,159.583 23.585 C 155.935 24.471,154.423 24.849,153.250 25.169 C 152.517 25.369,151.504 25.641,151.000 25.773 C 147.509 26.692,139.914 29.213,135.500 30.917 C 133.896 31.536,132.314 32.141,131.986 32.261 C 131.657 32.381,130.982 32.664,130.486 32.890 C 129.989 33.116,128.758 33.652,127.750 34.080 C 125.096 35.209,125.135 35.191,120.583 37.418 C 114.692 40.301,108.468 43.748,104.202 46.490 C 103.220 47.121,101.742 48.069,100.917 48.596 C 98.371 50.223,91.760 54.868,91.333 55.329 C 91.287 55.378,90.800 55.750,90.250 56.156 C 88.941 57.121,85.297 60.002,85.083 60.241 C 84.992 60.343,84.467 60.790,83.917 61.233 C 77.177 66.664,66.664 77.177,61.233 83.917 C 60.790 84.467,60.343 84.992,60.241 85.083 C 60.002 85.297,57.121 88.941,56.156 90.250 C 55.750 90.800,55.378 91.287,55.329 91.333 C 54.868 91.760,50.223 98.371,48.596 100.917 C 48.069 101.742,47.121 103.220,46.490 104.202 C 43.748 108.468,40.301 114.692,37.418 120.583 C 35.191 125.135,35.209 125.096,34.080 127.750 C 33.652 128.758,33.116 129.989,32.890 130.486 C 32.664 130.982,32.381 131.657,32.261 131.986 C 32.141 132.314,31.536 133.896,30.917 135.500 C 29.137 140.110,26.782 147.241,25.660 151.417 C 25.463 152.150,25.191 153.162,25.055 153.667 C 24.836 154.483,24.301 156.634,23.585 159.583 C 23.451 160.133,23.229 161.146,23.091 161.833 C 22.954 162.521,22.657 163.983,22.432 165.083 C 21.858 167.896,20.874 173.995,20.511 177.000 C 18.545 193.239,18.545 206.761,20.511 223.000 C 20.808 225.462,22.067 233.383,22.262 234.026 C 22.308 234.177,22.415 234.702,22.500 235.192 C 22.880 237.381,24.340 243.756,25.072 246.417 C 25.198 246.875,25.462 247.850,25.659 248.583 C 27.183 254.254,30.122 262.803,32.534 268.583 C 34.907 274.268,34.900 274.253,37.474 279.517 C 41.632 288.018,45.653 294.857,51.576 303.500 C 52.299 304.554,52.938 305.454,52.997 305.500 C 53.057 305.546,53.358 305.958,53.667 306.417 C 53.975 306.875,54.274 307.287,54.330 307.333 C 54.387 307.379,54.613 307.679,54.833 308.000 C 55.054 308.321,55.280 308.621,55.337 308.667 C 55.394 308.712,55.769 309.200,56.171 309.750 C 56.801 310.612,57.536 311.555,58.643 312.921 C 58.793 313.107,59.214 313.632,59.578 314.088 C 59.941 314.544,60.280 314.954,60.331 315.000 C 60.381 315.046,60.945 315.721,61.583 316.500 C 62.222 317.279,62.787 317.954,62.841 318.000 C 62.894 318.046,63.793 319.058,64.840 320.250 C 70.134 326.279,78.027 333.931,84.005 338.831 C 84.506 339.242,84.954 339.617,85.000 339.664 C 85.046 339.711,85.458 340.050,85.917 340.416 C 86.375 340.783,86.900 341.206,87.083 341.357 C 88.098 342.191,89.438 343.231,90.917 344.330 C 91.833 345.012,92.621 345.615,92.667 345.671 C 92.712 345.726,93.125 346.026,93.583 346.336 C 94.042 346.647,94.508 346.991,94.621 347.101 C 94.733 347.211,95.108 347.473,95.454 347.683 C 95.800 347.894,96.121 348.107,96.167 348.158 C 96.713 348.762,104.855 353.980,109.000 356.383 C 110.329 357.153,111.867 358.030,112.417 358.331 C 112.967 358.631,113.492 358.933,113.583 359.001 C 115.108 360.134,128.965 366.598,133.750 368.409 C 140.313 370.892,145.349 372.614,149.333 373.736 C 149.837 373.878,150.887 374.178,151.667 374.402 C 153.406 374.902,160.214 376.570,161.583 376.832 C 162.133 376.937,163.033 377.124,163.583 377.247 C 164.557 377.464,166.222 377.788,168.250 378.154 C 170.055 378.479,175.552 379.308,177.083 379.485 C 184.552 380.349,187.987 380.614,194.716 380.846 C 202.302 381.107,211.652 380.749,219.167 379.910 C 224.762 379.285,224.604 379.307,230.083 378.415 C 232.962 377.946,234.576 377.635,238.333 376.825 C 239.662 376.538,241.050 376.240,241.417 376.162 C 242.151 376.007,247.010 374.751,249.498 374.075 C 256.173 372.258,266.737 368.410,273.833 365.210 C 277.564 363.527,283.691 360.507,286.023 359.201 C 286.331 359.029,287.033 358.640,287.583 358.337 C 289.318 357.381,292.048 355.809,293.000 355.218 C 293.504 354.904,294.592 354.230,295.417 353.718 C 297.484 352.437,300.842 350.267,301.247 349.951 C 301.340 349.878,302.619 348.978,304.088 347.951 C 305.557 346.924,307.544 345.489,308.504 344.762 C 310.908 342.941,313.067 341.278,313.167 341.168 C 313.212 341.118,314.112 340.367,315.167 339.500 C 323.830 332.373,332.373 323.830,339.500 315.167 C 340.367 314.112,341.118 313.212,341.168 313.167 C 341.278 313.067,342.941 310.908,344.762 308.504 C 345.489 307.544,346.924 305.557,347.951 304.088 C 348.978 302.619,349.878 301.340,349.951 301.247 C 350.267 300.842,352.437 297.484,353.718 295.417 C 354.230 294.592,354.904 293.504,355.218 293.000 C 355.809 292.048,357.381 289.318,358.337 287.583 C 358.640 287.033,359.029 286.331,359.201 286.023 C 360.507 283.691,363.527 277.564,365.210 273.833 C 368.408 266.742,372.239 256.227,374.076 249.498 C 374.860 246.627,376.300 240.932,376.562 239.663 C 376.704 238.978,377.044 237.347,377.319 236.040 C 377.994 232.821,379.167 225.723,379.487 222.917 C 380.363 215.247,380.608 212.064,380.844 205.299 C 381.109 197.695,380.753 188.388,379.910 180.833 C 379.408 176.344,379.303 175.531,378.823 172.417 C 377.747 165.443,375.986 157.179,374.402 151.667 C 374.178 150.887,373.878 149.837,373.736 149.333 C 372.614 145.349,370.892 140.313,368.409 133.750 C 366.598 128.965,360.134 115.108,359.001 113.583 C 358.933 113.492,358.631 112.967,358.331 112.417 C 356.266 108.642,353.510 104.106,350.834 100.083 C 349.109 97.488,348.282 96.279,348.158 96.167 C 348.107 96.121,347.894 95.800,347.683 95.454 C 347.473 95.108,347.211 94.733,347.101 94.621 C 346.991 94.508,346.647 94.042,346.336 93.583 C 346.026 93.125,345.726 92.712,345.671 92.667 C 345.615 92.621,345.012 91.833,344.330 90.917 C 343.231 89.438,342.191 88.098,341.357 87.083 C 341.206 86.900,340.783 86.375,340.416 85.917 C 340.050 85.458,339.711 85.046,339.664 85.000 C 339.617 84.954,339.242 84.506,338.831 84.005 C 333.931 78.027,326.279 70.134,320.250 64.840 C 319.058 63.793,318.046 62.894,318.000 62.841 C 317.954 62.787,317.279 62.222,316.500 61.583 C 315.721 60.945,315.046 60.381,315.000 60.331 C 314.954 60.280,314.544 59.941,314.088 59.578 C 313.632 59.214,313.107 58.793,312.921 58.643 C 311.555 57.536,310.612 56.801,309.750 56.171 C 309.200 55.769,308.712 55.394,308.667 55.337 C 308.621 55.280,308.321 55.054,308.000 54.833 C 307.679 54.613,307.379 54.387,307.333 54.330 C 307.287 54.274,306.875 53.975,306.417 53.667 C 305.958 53.358,305.546 53.057,305.500 52.997 C 305.326 52.773,299.072 48.557,296.707 47.072 C 290.570 43.215,285.729 40.513,279.517 37.474 C 274.253 34.900,274.268 34.907,268.583 32.534 C 262.803 30.122,254.254 27.183,248.583 25.659 C 247.850 25.462,246.875 25.198,246.417 25.072 C 243.756 24.340,237.381 22.880,235.192 22.500 C 234.702 22.415,234.177 22.308,234.026 22.262 C 233.379 22.066,225.445 20.806,223.000 20.511 C 211.972 19.183,202.983 18.787,192.833 19.184 M164.091 112.904 C 176.462 125.363,189.949 138.945,194.062 143.086 L 201.542 150.615 206.229 145.849 C 208.807 143.228,212.306 139.658,214.004 137.917 C 215.702 136.175,220.539 131.225,224.752 126.917 C 228.966 122.608,233.839 117.621,235.582 115.833 C 237.324 114.046,240.740 110.558,243.171 108.083 C 245.603 105.608,249.016 102.121,250.757 100.333 C 252.497 98.546,257.331 93.596,261.498 89.333 C 265.665 85.071,270.502 80.120,272.246 78.332 C 278.218 72.207,282.709 67.667,282.794 67.667 C 282.958 67.667,284.453 69.087,288.917 73.485 C 291.392 75.924,296.379 80.804,300.000 84.329 C 303.621 87.855,308.533 92.659,310.917 95.005 C 313.300 97.352,318.212 102.161,321.833 105.692 C 325.454 109.223,329.409 113.081,330.622 114.264 L 332.827 116.417 327.799 121.583 C 325.034 124.425,319.430 130.162,315.347 134.333 C 311.264 138.504,306.497 143.379,304.753 145.167 C 303.010 146.954,299.590 150.442,297.154 152.917 C 294.717 155.392,289.807 160.417,286.243 164.083 C 282.678 167.750,277.843 172.700,275.497 175.083 C 273.152 177.467,268.425 182.300,264.992 185.825 C 261.559 189.349,256.899 194.112,254.637 196.408 L 250.523 200.582 251.715 201.833 C 252.371 202.521,254.746 204.996,256.994 207.333 C 259.242 209.671,261.942 212.483,262.993 213.583 C 264.044 214.683,265.921 216.633,267.164 217.917 C 268.407 219.200,271.066 221.975,273.072 224.083 C 275.079 226.192,277.781 229.004,279.076 230.333 C 280.370 231.662,282.289 233.651,283.340 234.752 C 284.390 235.853,287.125 238.703,289.416 241.085 C 291.708 243.467,294.370 246.242,295.333 247.250 C 296.296 248.258,298.996 251.070,301.333 253.498 C 303.671 255.927,306.405 258.777,307.409 259.832 C 308.413 260.887,310.326 262.875,311.660 264.250 C 312.994 265.625,315.698 268.437,317.668 270.499 C 319.638 272.561,322.305 275.336,323.594 276.665 C 328.637 281.868,332.667 286.136,332.667 286.276 C 332.667 286.356,331.710 287.355,330.542 288.495 C 329.373 289.635,325.454 293.454,321.833 296.982 C 318.212 300.510,313.300 305.314,310.917 307.659 C 308.533 310.003,305.046 313.421,303.167 315.253 C 301.287 317.085,296.300 321.962,292.083 326.091 C 287.867 330.220,284.045 333.943,283.590 334.365 L 282.763 335.132 279.673 332.008 C 277.974 330.290,271.524 323.754,265.341 317.484 C 259.158 311.214,250.532 302.483,246.172 298.083 C 241.812 293.683,233.075 284.833,226.757 278.417 C 215.820 267.309,206.485 257.873,202.354 253.750 L 200.459 251.858 199.104 253.231 C 198.359 253.987,194.905 257.525,191.427 261.094 C 187.950 264.663,183.146 269.571,180.752 272.000 C 178.358 274.429,173.443 279.454,169.831 283.167 C 166.218 286.879,161.384 291.829,159.087 294.167 C 156.790 296.504,153.448 299.917,151.661 301.750 C 149.874 303.583,145.039 308.533,140.917 312.750 C 136.795 316.967,131.960 321.917,130.172 323.750 C 128.385 325.583,124.911 329.123,122.452 331.616 L 117.982 336.148 116.528 334.699 C 115.728 333.902,112.151 330.404,108.579 326.925 C 105.006 323.446,100.096 318.644,97.667 316.253 C 95.237 313.863,91.750 310.446,89.917 308.659 C 86.958 305.777,73.613 292.733,69.550 288.753 L 68.016 287.250 73.955 281.167 C 77.221 277.821,83.197 271.708,87.234 267.583 C 91.271 263.458,96.038 258.583,97.826 256.750 C 99.614 254.917,103.104 251.354,105.581 248.833 C 108.057 246.313,112.895 241.362,116.331 237.833 C 119.767 234.304,124.531 229.429,126.918 227.000 C 129.304 224.571,132.719 221.083,134.507 219.250 C 137.249 216.439,151.038 202.349,151.433 201.956 C 151.503 201.886,150.668 200.911,149.577 199.789 C 148.486 198.668,146.278 196.400,144.670 194.750 C 143.061 193.100,139.834 189.762,137.498 187.333 C 135.162 184.904,131.974 181.604,130.413 180.000 C 128.851 178.396,126.601 176.071,125.411 174.833 C 124.221 173.596,120.961 170.221,118.165 167.333 C 115.370 164.446,112.111 161.071,110.923 159.833 C 109.734 158.596,107.446 156.233,105.837 154.583 C 104.229 152.933,101.001 149.596,98.665 147.167 C 96.328 144.737,93.140 141.438,91.579 139.833 C 90.018 138.229,87.730 135.867,86.494 134.583 C 85.259 133.300,82.031 129.962,79.322 127.167 C 76.613 124.371,72.956 120.583,71.196 118.750 L 67.994 115.417 69.539 113.914 C 70.388 113.088,74.571 109.001,78.833 104.833 C 83.096 100.665,88.083 95.792,89.917 94.005 C 91.750 92.218,95.275 88.767,97.750 86.336 C 100.225 83.906,105.137 79.104,108.666 75.667 C 112.195 72.229,115.720 68.773,116.499 67.987 L 117.917 66.557 129.757 78.404 C 136.270 84.919,151.720 100.444,164.091 112.904 " stroke="none" fill="#fcfcfc" fill-rule="evenodd"></path><path id="path1" d="M190.417 0.170 C 184.432 0.413,175.713 1.286,169.583 2.256 C 165.165 2.955,162.641 3.388,161.475 3.649 C 161.076 3.738,160.262 3.899,159.667 4.006 C 159.071 4.114,158.171 4.302,157.667 4.424 C 157.162 4.547,155.737 4.880,154.500 5.164 C 151.684 5.810,150.559 6.088,149.083 6.500 C 148.442 6.679,147.429 6.948,146.833 7.098 C 143.115 8.031,136.426 10.179,130.917 12.210 C 129.175 12.852,127.450 13.486,127.083 13.618 C 126.433 13.853,123.080 15.246,121.750 15.834 C 121.383 15.996,120.596 16.332,120.000 16.582 C 119.404 16.832,118.429 17.260,117.833 17.535 C 117.237 17.809,116.075 18.343,115.250 18.721 C 113.649 19.454,107.187 22.700,105.250 23.744 C 103.268 24.812,102.257 25.372,102.083 25.500 C 101.992 25.567,101.542 25.828,101.083 26.079 C 100.625 26.331,98.825 27.393,97.083 28.439 C 93.115 30.823,93.349 30.679,92.719 31.125 C 92.428 31.331,92.158 31.500,92.121 31.500 C 92.062 31.500,90.731 32.382,86.250 35.390 C 85.150 36.128,80.900 39.205,79.583 40.216 C 79.125 40.568,78.188 41.276,77.500 41.788 C 76.813 42.301,76.212 42.767,76.167 42.823 C 76.121 42.879,75.746 43.184,75.333 43.500 C 74.921 43.817,74.058 44.517,73.417 45.057 C 72.775 45.597,72.099 46.161,71.915 46.311 C 71.355 46.767,69.598 48.239,69.402 48.417 C 69.301 48.508,68.703 49.033,68.073 49.583 C 66.742 50.745,65.427 51.917,64.250 52.991 C 63.167 53.978,53.978 63.167,52.991 64.250 C 51.917 65.427,50.745 66.742,49.583 68.073 C 49.033 68.703,48.508 69.301,48.417 69.402 C 48.239 69.598,46.767 71.355,46.311 71.915 C 46.161 72.099,45.597 72.775,45.057 73.417 C 44.517 74.058,43.817 74.921,43.500 75.333 C 43.184 75.746,42.879 76.121,42.823 76.167 C 42.767 76.212,42.301 76.813,41.788 77.500 C 41.276 78.188,40.568 79.125,40.216 79.583 C 39.205 80.900,36.128 85.150,35.390 86.250 C 32.382 90.731,31.500 92.062,31.500 92.121 C 31.500 92.158,31.331 92.428,31.125 92.719 C 30.679 93.349,30.823 93.115,28.439 97.083 C 27.393 98.825,26.331 100.625,26.079 101.083 C 25.828 101.542,25.567 101.992,25.500 102.083 C 25.372 102.257,24.812 103.268,23.744 105.250 C 22.700 107.187,19.454 113.649,18.721 115.250 C 18.343 116.075,17.809 117.237,17.535 117.833 C 17.260 118.429,16.832 119.404,16.582 120.000 C 16.332 120.596,15.996 121.383,15.834 121.750 C 15.246 123.080,13.853 126.433,13.618 127.083 C 13.486 127.450,12.852 129.175,12.210 130.917 C 10.179 136.426,8.031 143.115,7.098 146.833 C 6.948 147.429,6.679 148.442,6.500 149.083 C 6.088 150.559,5.810 151.684,5.164 154.500 C 4.880 155.737,4.547 157.162,4.424 157.667 C 4.302 158.171,4.114 159.071,4.006 159.667 C 3.899 160.262,3.738 161.076,3.649 161.475 C 3.389 162.636,2.979 165.022,2.255 169.583 C -0.200 185.042,-0.694 203.682,0.927 219.667 C 1.561 225.919,1.934 228.701,2.850 234.000 C 3.048 235.146,3.265 236.421,3.332 236.833 C 3.505 237.907,4.133 241.062,4.427 242.333 C 5.868 248.569,6.131 249.645,6.753 251.833 C 6.870 252.246,7.059 252.958,7.172 253.417 C 7.429 254.455,8.649 258.609,9.252 260.500 C 9.676 261.830,10.086 263.057,11.175 266.250 C 11.629 267.583,12.886 270.977,13.798 273.333 C 14.432 274.972,16.887 280.764,17.578 282.250 C 17.876 282.892,18.448 284.129,18.848 285.000 C 20.577 288.761,24.495 296.288,26.028 298.795 C 26.379 299.369,26.667 299.868,26.667 299.904 C 26.667 299.984,28.558 303.201,29.075 304.000 C 29.282 304.321,29.651 304.921,29.895 305.333 C 30.551 306.443,30.711 306.696,31.125 307.281 C 31.331 307.572,31.500 307.842,31.500 307.879 C 31.500 307.952,33.903 311.557,35.691 314.167 C 37.141 316.283,42.463 323.492,42.828 323.833 C 42.877 323.879,43.214 324.292,43.578 324.750 C 43.941 325.208,44.279 325.621,44.328 325.667 C 44.377 325.712,44.867 326.313,45.417 327.000 C 45.966 327.688,46.455 328.287,46.502 328.333 C 46.550 328.379,47.224 329.167,48.000 330.083 C 48.776 331.000,49.458 331.787,49.515 331.833 C 49.573 331.879,49.940 332.292,50.333 332.750 C 53.588 336.555,62.326 345.334,66.583 349.078 C 67.408 349.804,68.121 350.440,68.167 350.493 C 68.212 350.545,69.000 351.224,69.917 352.000 C 70.833 352.776,71.621 353.450,71.667 353.498 C 71.712 353.545,72.313 354.034,73.000 354.584 C 73.688 355.134,74.335 355.663,74.439 355.761 C 74.644 355.953,76.319 357.265,78.833 359.205 C 80.886 360.787,85.298 364.000,85.420 364.000 C 85.472 364.000,85.605 364.075,85.715 364.167 C 86.155 364.532,87.992 365.814,89.333 366.692 C 92.362 368.675,93.259 369.253,93.500 369.379 C 93.638 369.450,94.275 369.839,94.917 370.243 C 96.313 371.122,99.250 372.869,100.317 373.457 C 100.739 373.688,101.158 373.934,101.250 374.003 C 101.483 374.178,104.256 375.715,106.250 376.774 C 109.063 378.268,117.352 382.333,117.585 382.333 C 117.617 382.333,118.192 382.587,118.863 382.896 C 120.391 383.601,125.084 385.589,126.417 386.095 C 126.967 386.304,127.829 386.635,128.333 386.831 C 131.089 387.902,140.119 391.014,141.417 391.341 C 141.692 391.410,142.779 391.727,143.833 392.046 C 144.887 392.364,146.125 392.717,146.583 392.829 C 147.042 392.942,147.754 393.130,148.167 393.247 C 150.425 393.889,154.376 394.856,157.000 395.410 C 160.161 396.077,165.236 397.047,167.000 397.320 C 167.596 397.413,168.796 397.599,169.667 397.735 C 185.221 400.166,203.777 400.663,219.583 399.073 C 224.652 398.563,226.536 398.329,230.333 397.735 C 231.204 397.599,232.404 397.413,233.000 397.320 C 235.504 396.932,243.342 395.392,244.833 394.995 C 245.154 394.909,246.804 394.499,248.500 394.083 C 251.516 393.343,253.146 392.910,255.667 392.177 C 256.354 391.977,257.404 391.675,258.000 391.507 C 259.719 391.021,266.874 388.618,269.424 387.671 C 272.611 386.488,278.514 384.093,280.833 383.042 C 285.273 381.031,286.834 380.291,289.757 378.813 C 293.076 377.135,295.470 375.872,296.664 375.168 C 297.132 374.892,297.550 374.667,297.594 374.667 C 297.638 374.667,297.953 374.491,298.295 374.276 C 298.637 374.062,299.329 373.657,299.833 373.377 C 300.337 373.097,301.313 372.525,302.000 372.107 C 302.688 371.688,303.726 371.062,304.308 370.714 C 304.889 370.367,305.540 369.971,305.753 369.833 C 305.966 369.696,306.727 369.213,307.445 368.761 C 308.163 368.308,309.425 367.483,310.250 366.927 C 311.075 366.372,311.827 365.879,311.921 365.833 C 312.089 365.751,313.636 364.664,317.583 361.854 C 319.376 360.578,323.120 357.741,323.333 357.497 C 323.379 357.444,323.904 357.031,324.500 356.578 C 325.096 356.126,325.771 355.596,326.000 355.401 C 326.229 355.205,327.392 354.234,328.583 353.242 C 329.775 352.249,330.900 351.303,331.083 351.139 C 331.267 350.974,331.610 350.670,331.847 350.462 C 338.050 345.007,345.007 338.050,350.462 331.847 C 350.670 331.610,350.974 331.267,351.139 331.083 C 351.303 330.900,352.249 329.775,353.242 328.583 C 354.234 327.392,355.205 326.229,355.401 326.000 C 355.596 325.771,356.126 325.096,356.578 324.500 C 357.031 323.904,357.444 323.379,357.497 323.333 C 357.741 323.120,360.578 319.376,361.854 317.583 C 364.664 313.636,365.751 312.089,365.833 311.921 C 365.879 311.827,366.372 311.075,366.927 310.250 C 367.483 309.425,368.308 308.163,368.761 307.445 C 369.213 306.727,369.696 305.966,369.833 305.753 C 369.971 305.540,370.367 304.889,370.714 304.308 C 371.062 303.726,371.688 302.688,372.107 302.000 C 372.525 301.313,373.097 300.337,373.377 299.833 C 373.657 299.329,374.062 298.637,374.276 298.295 C 374.491 297.953,374.667 297.638,374.667 297.594 C 374.667 297.550,374.892 297.132,375.168 296.664 C 375.872 295.470,377.135 293.076,378.813 289.757 C 380.291 286.834,381.031 285.273,383.042 280.833 C 384.092 278.515,386.486 272.615,387.674 269.417 C 388.603 266.916,390.996 259.784,391.505 258.000 C 391.674 257.404,391.977 256.354,392.177 255.667 C 393.162 252.277,394.475 247.110,395.480 242.667 C 395.872 240.934,397.049 234.749,397.320 233.000 C 397.413 232.404,397.599 231.204,397.735 230.333 C 400.166 214.779,400.663 196.223,399.073 180.417 C 398.563 175.348,398.329 173.464,397.735 169.667 C 397.599 168.796,397.413 167.596,397.320 167.000 C 397.047 165.236,396.077 160.161,395.410 157.000 C 394.856 154.376,393.889 150.425,393.247 148.167 C 393.130 147.754,392.942 147.042,392.829 146.583 C 392.717 146.125,392.364 144.887,392.046 143.833 C 391.727 142.779,391.410 141.692,391.341 141.417 C 391.014 140.119,387.902 131.089,386.831 128.333 C 386.635 127.829,386.304 126.967,386.095 126.417 C 385.589 125.084,383.601 120.391,382.896 118.863 C 382.587 118.192,382.333 117.617,382.333 117.585 C 382.333 117.352,378.268 109.063,376.774 106.250 C 375.715 104.256,374.178 101.483,374.003 101.250 C 373.934 101.158,373.688 100.739,373.457 100.317 C 372.869 99.250,371.122 96.313,370.243 94.917 C 369.839 94.275,369.450 93.638,369.379 93.500 C 369.253 93.259,368.675 92.362,366.692 89.333 C 365.814 87.992,364.532 86.155,364.167 85.715 C 364.075 85.605,364.000 85.472,364.000 85.420 C 364.000 85.298,360.787 80.886,359.205 78.833 C 357.265 76.319,355.953 74.644,355.761 74.439 C 355.663 74.335,355.134 73.688,354.584 73.000 C 354.034 72.313,353.545 71.712,353.498 71.667 C 353.450 71.621,352.776 70.833,352.000 69.917 C 351.224 69.000,350.545 68.212,350.493 68.167 C 350.440 68.121,349.804 67.408,349.078 66.583 C 345.334 62.326,336.555 53.588,332.750 50.333 C 332.292 49.940,331.879 49.573,331.833 49.515 C 331.787 49.458,331.000 48.776,330.083 48.000 C 329.167 47.224,328.379 46.550,328.333 46.502 C 328.287 46.455,327.688 45.966,327.000 45.417 C 326.313 44.867,325.712 44.377,325.667 44.328 C 325.621 44.279,325.208 43.941,324.750 43.578 C 324.292 43.214,323.879 42.877,323.833 42.828 C 323.492 42.463,316.283 37.141,314.167 35.691 C 311.557 33.903,307.952 31.500,307.879 31.500 C 307.842 31.500,307.572 31.331,307.281 31.125 C 306.696 30.711,306.443 30.551,305.333 29.895 C 304.921 29.651,304.321 29.282,304.000 29.075 C 303.201 28.558,299.984 26.667,299.904 26.667 C 299.868 26.667,299.369 26.379,298.795 26.028 C 296.288 24.495,288.761 20.577,285.000 18.848 C 284.129 18.448,282.892 17.876,282.250 17.578 C 280.764 16.887,274.972 14.432,273.333 13.798 C 270.977 12.886,267.583 11.629,266.250 11.175 C 263.057 10.086,261.830 9.676,260.500 9.252 C 258.609 8.649,254.455 7.429,253.417 7.172 C 252.958 7.059,252.246 6.870,251.833 6.753 C 249.645 6.131,248.569 5.868,242.333 4.427 C 241.062 4.133,237.907 3.505,236.833 3.332 C 236.421 3.265,235.146 3.048,234.000 2.850 C 227.813 1.781,222.258 1.093,215.000 0.497 C 209.357 0.034,197.605 -0.122,190.417 0.170 M206.583 19.161 C 216.801 19.517,227.040 20.760,237.417 22.902 C 247.402 24.963,261.265 29.260,269.417 32.820 C 269.600 32.901,270.012 33.078,270.333 33.215 C 270.654 33.353,271.254 33.615,271.667 33.798 C 272.079 33.982,272.867 34.321,273.417 34.551 C 274.355 34.944,277.206 36.283,280.250 37.760 C 282.300 38.754,287.088 41.298,289.250 42.542 C 297.382 47.220,304.322 51.881,311.500 57.483 C 313.410 58.973,316.555 61.537,316.833 61.829 C 316.879 61.877,317.404 62.327,318.000 62.828 C 323.732 67.653,332.192 76.116,337.166 82.000 C 337.669 82.596,338.121 83.121,338.170 83.167 C 338.829 83.785,343.227 89.355,346.000 93.083 C 349.462 97.735,355.405 106.963,357.915 111.583 C 358.264 112.225,358.905 113.391,359.339 114.175 C 361.796 118.606,365.311 126.084,367.834 132.244 C 370.158 137.922,372.955 146.146,374.438 151.664 C 376.023 157.561,377.390 163.671,378.242 168.667 C 378.390 169.537,378.582 170.662,378.668 171.167 C 381.038 185.061,381.604 205.092,380.008 218.583 C 379.921 219.317,379.766 220.667,379.663 221.583 C 379.448 223.494,378.905 227.444,378.654 228.917 C 378.561 229.467,378.413 230.329,378.327 230.833 C 377.407 236.193,376.003 242.512,374.438 248.336 C 371.709 258.494,367.316 269.902,362.025 280.575 C 360.137 284.384,359.211 286.124,356.932 290.139 C 356.140 291.535,353.727 295.528,353.089 296.500 C 352.878 296.821,352.045 298.096,351.237 299.333 C 348.495 303.535,344.326 309.277,341.314 313.000 C 338.577 316.384,338.275 316.753,338.181 316.833 C 338.127 316.879,337.634 317.442,337.084 318.083 C 331.649 324.430,324.430 331.649,318.083 337.084 C 317.442 337.634,316.879 338.127,316.833 338.181 C 316.753 338.275,316.384 338.577,313.000 341.314 C 309.277 344.326,303.535 348.495,299.333 351.237 C 298.096 352.045,296.821 352.878,296.500 353.089 C 295.528 353.727,291.535 356.140,290.139 356.932 C 288.801 357.691,288.538 357.839,285.908 359.294 C 276.382 364.568,263.369 369.958,251.752 373.442 C 245.357 375.360,237.694 377.150,230.833 378.327 C 230.329 378.413,229.467 378.561,228.917 378.654 C 227.444 378.905,223.494 379.448,221.583 379.663 C 220.667 379.766,219.317 379.921,218.583 380.008 C 205.092 381.604,185.061 381.038,171.167 378.668 C 170.662 378.582,169.537 378.390,168.667 378.242 C 163.671 377.390,157.561 376.023,151.664 374.438 C 139.914 371.281,124.560 365.097,114.175 359.339 C 113.391 358.905,112.225 358.264,111.583 357.915 C 106.963 355.405,97.735 349.462,93.083 346.000 C 89.355 343.227,83.785 338.829,83.167 338.170 C 83.121 338.121,82.596 337.669,82.000 337.166 C 76.116 332.192,67.653 323.732,62.828 318.000 C 62.327 317.404,61.877 316.879,61.829 316.833 C 61.153 316.191,56.666 310.514,54.016 306.948 C 46.983 297.485,38.588 283.021,34.553 273.417 C 34.322 272.867,33.953 272.021,33.733 271.537 C 33.513 271.053,33.333 270.621,33.333 270.577 C 33.333 270.532,33.187 270.178,33.007 269.790 C 29.711 262.647,24.965 247.444,22.900 237.417 C 19.100 218.955,18.088 200.146,19.923 182.083 C 20.508 176.323,21.281 170.834,22.092 166.667 C 24.371 154.965,26.810 146.282,30.753 135.833 C 31.652 133.451,32.770 130.631,33.164 129.750 C 33.328 129.383,33.613 128.746,33.797 128.333 C 33.981 127.921,34.321 127.133,34.551 126.583 C 35.830 123.528,39.259 116.616,41.454 112.667 C 42.400 110.964,44.592 107.185,45.151 106.293 C 45.480 105.767,46.125 104.731,46.583 103.991 C 48.920 100.217,52.976 94.339,55.743 90.717 C 65.857 77.478,77.478 65.857,90.717 55.743 C 94.339 52.976,100.217 48.920,103.991 46.583 C 104.731 46.125,105.767 45.480,106.293 45.151 C 107.185 44.592,110.964 42.400,112.667 41.454 C 116.616 39.259,123.528 35.830,126.583 34.551 C 127.133 34.321,127.921 33.981,128.333 33.797 C 128.746 33.613,129.383 33.328,129.750 33.164 C 130.631 32.770,133.451 31.652,135.833 30.753 C 146.282 26.810,154.965 24.371,166.667 22.092 C 178.734 19.742,193.064 18.690,206.583 19.161 M111.651 72.792 C 106.005 78.338,94.637 89.448,81.860 101.908 C 79.233 104.469,75.045 108.567,72.555 111.015 L 68.026 115.464 72.373 119.940 C 74.763 122.402,77.552 125.279,78.570 126.333 C 79.587 127.388,82.671 130.575,85.423 133.417 C 95.519 143.842,99.043 147.487,104.917 153.581 C 116.589 165.691,123.603 172.951,126.416 175.833 C 127.981 177.438,130.235 179.762,131.425 181.000 C 132.614 182.237,135.840 185.575,138.593 188.417 C 141.347 191.258,145.386 195.440,147.570 197.709 L 151.540 201.835 146.728 206.786 C 144.082 209.509,139.553 214.140,136.664 217.077 C 131.933 221.886,121.048 233.024,108.261 246.141 C 105.701 248.768,100.299 254.292,96.257 258.417 C 87.167 267.694,77.365 277.712,72.071 283.134 L 68.058 287.244 72.487 291.589 C 74.923 293.978,79.028 297.992,81.609 300.508 C 97.428 315.933,106.295 324.598,110.250 328.497 C 112.725 330.937,115.485 333.641,116.382 334.505 L 118.015 336.076 121.054 332.996 C 122.726 331.302,127.468 326.467,131.593 322.250 C 135.717 318.033,141.977 311.635,145.504 308.031 C 149.031 304.427,155.929 297.363,160.833 292.333 C 165.737 287.304,172.635 280.240,176.162 276.636 C 192.784 259.649,197.528 254.799,198.948 253.335 L 200.483 251.754 208.022 259.419 C 212.168 263.634,219.320 270.871,223.915 275.500 C 228.511 280.129,237.325 289.054,243.502 295.333 C 249.680 301.612,258.340 310.387,262.747 314.833 C 267.154 319.279,273.430 325.617,276.693 328.917 C 279.956 332.217,282.666 334.954,282.715 335.000 C 282.764 335.046,286.718 331.258,291.501 326.583 C 296.285 321.908,304.273 314.108,309.252 309.250 C 327.965 290.991,332.583 286.436,332.583 286.239 C 332.583 286.127,330.819 284.209,328.662 281.976 C 322.092 275.175,317.482 270.382,312.333 264.997 C 307.304 259.739,303.455 255.730,296.090 248.083 C 293.795 245.700,291.096 242.887,290.092 241.833 C 289.088 240.779,287.136 238.754,285.754 237.333 C 283.404 234.916,275.930 227.128,270.262 221.190 C 268.893 219.756,265.931 216.671,263.679 214.333 C 261.428 211.996,258.724 209.183,257.672 208.083 C 256.620 206.983,254.566 204.856,253.109 203.356 L 250.459 200.628 253.023 198.023 C 254.433 196.589,257.048 193.917,258.833 192.083 C 260.618 190.250,263.996 186.800,266.340 184.417 C 270.276 180.415,283.378 167.005,294.323 155.775 C 296.838 153.195,302.239 147.671,306.325 143.500 C 313.336 136.343,322.169 127.310,329.520 119.779 L 332.790 116.429 328.936 112.681 C 326.817 110.620,322.983 106.863,320.417 104.333 C 317.850 101.802,312.901 96.961,309.418 93.574 C 305.935 90.187,300.605 84.979,297.573 82.000 C 294.541 79.021,289.978 74.562,287.434 72.092 L 282.807 67.600 280.607 69.842 C 275.894 74.644,263.173 87.647,258.824 92.108 C 245.836 105.431,235.120 116.400,231.086 120.500 C 228.605 123.021,225.114 126.583,223.326 128.417 C 221.538 130.250,216.665 135.237,212.497 139.500 C 208.329 143.762,204.168 148.021,203.251 148.963 L 201.583 150.676 193.910 142.963 C 189.689 138.721,174.017 122.950,159.082 107.917 C 119.505 68.078,118.098 66.667,117.987 66.667 C 117.932 66.667,115.080 69.423,111.651 72.792 " stroke="none" fill="#f40404" fill-rule="evenodd"></path><path id="path2" d="" stroke="none" fill="#f8bc100" fill-rule="evenodd"></path><path id="path3" d="" stroke="none" fill="#f8bc100" fill-rule="evenodd"></path><path id="path4" d="" stroke="none" fill="#f8bc100" fill-rule="evenodd"></path></g></svg>