<?xml version="1.0" encoding="utf-8"?>
<!-- Generator: Adobe Illustrator 24.0.2, SVG Export Plug-In . SVG Version: 6.00 Build 0)  -->
<svg version="1.1" xmlns="http://www.w3.org/2000/svg" xmlns:xlink="http://www.w3.org/1999/xlink" x="0px" y="0px"
	 viewBox="0 0 50 50" style="enable-background:new 0 0 50 50;" xml:space="preserve">
<style type="text/css">
	.st0{fill:#FFFFFF;}
</style>
<g id="Layer_1">
</g>
<g id="Layer_2">
	<path class="st0" d="M43.2,1.2H6.4C3.4,1.2,1,3.6,1,6.6v36.8c0,3,2.5,5.5,5.5,5.5h36.8c3,0,5.5-2.5,5.5-5.5V6.6
		C48.7,3.6,46.3,1.2,43.2,1.2z M40.6,14.7H9.5c-2.2,0-3.9-1.8-3.9-3.9V9.9C5.5,7.8,7.3,6,9.5,6h31.2c2.2,0,3.9,1.8,3.9,3.9v0.9
		C44.5,13,42.8,14.7,40.6,14.7z M10.6,43.6H9.7c-2.1,0-3.9-1.8-3.9-3.9V23c0-2.1,1.8-3.9,3.9-3.9h0.9c2.1,0,3.9,1.8,3.9,3.9v16.7
		C14.5,41.8,12.7,43.6,10.6,43.6z M39.3,29.5H24c-2.6,0-4.7-2.1-4.7-4.7v-1c0-2.6,2.1-4.7,4.7-4.7h15.3c2.6,0,4.7,2.1,4.7,4.7v1
		C44,27.4,41.9,29.5,39.3,29.5z M24.8,44h-1c-2.5,0-4.5-2-4.5-4.5v-1.6c0-2.5,2-4.5,4.5-4.5h1c2.5,0,4.5,2,4.5,4.5v1.6
		C29.3,42,27.3,44,24.8,44z M39.2,44h-1c-2.5,0-4.5-2-4.5-4.5v-1.6c0-2.5,2-4.5,4.5-4.5h1c2.5,0,4.5,2,4.5,4.5v1.6
		C43.7,42,41.6,44,39.2,44z"/>
</g>
</svg>
