<?xml version="1.0" encoding="utf-8"?>
<!-- Generator: Adobe Illustrator 24.1.0, SVG Export Plug-In . SVG Version: 6.00 Build 0)  -->
<svg version="1.1" id="Layer_1" xmlns="http://www.w3.org/2000/svg" xmlns:xlink="http://www.w3.org/1999/xlink" x="0px" y="0px"
	 viewBox="0 0 20 20" style="enable-background:new 0 0 20 20;" xml:space="preserve">
<style type="text/css">
	.st0{fill:#FFFFFF;}
</style>
<g>
	<g>
		<g>
			<g>
				<path class="st0" d="M18.1,4.9c0-0.4-0.2-0.8-0.5-1.1l-1.5-1.5C15.8,2,15.4,1.8,15,1.8h-0.1V5L18.1,4.9L18.1,4.9L18.1,4.9z"/>
			</g>
		</g>
	</g>
	<g>
		<path class="st0" d="M18.1,6.1h-3.7c-0.3,0-0.5-0.2-0.5-0.5V1.8H6c-0.9,0-1.6,0.7-1.6,1.6v14.9c0,0.9,0.7,1.6,1.6,1.6h10.5
			c0.9,0,1.6-0.7,1.6-1.6V6.1z M7,11.4h5.3c0.3,0,0.5,0.2,0.5,0.5c0,0.3-0.2,0.5-0.5,0.5H7c-0.3,0-0.5-0.2-0.5-0.5
			C6.5,11.6,6.7,11.4,7,11.4z M6.5,9.8c0-0.3,0.2-0.5,0.5-0.5h5.3c0.3,0,0.5,0.2,0.5,0.5c0,0.3-0.2,0.5-0.5,0.5H7
			C6.7,10.3,6.5,10.1,6.5,9.8z M6.5,14c0-0.3,0.2-0.5,0.5-0.5h5.3c0.3,0,0.5,0.2,0.5,0.5c0,0.3-0.2,0.5-0.5,0.5H7
			C6.7,14.5,6.5,14.3,6.5,14z M7,8.2c-0.3,0-0.5-0.2-0.5-0.5S6.7,7.1,7,7.1h7.4c0.3,0,0.5,0.2,0.5,0.5s-0.2,0.5-0.5,0.5H7z
			 M22.1,8.8C22.1,8.8,22.1,8.8,22.1,8.8C22.1,8.8,22.1,8.8,22.1,8.8C22.1,8.8,22.1,8.8,22.1,8.8z M22.1,8.8
			C22.1,8.8,22.1,8.8,22.1,8.8C22.1,8.8,22.1,8.8,22.1,8.8z M22.1,8.8C22.1,8.8,22.1,8.8,22.1,8.8L22.1,8.8z M7,16.6
			c-0.3,0-0.5-0.2-0.5-0.5c0-0.3,0.2-0.5,0.5-0.5h7.4c0.3,0,0.5,0.2,0.5,0.5c0,0.3-0.2,0.5-0.5,0.5H7z"/>
	</g>
	<g>
		<path class="st0" d="M3.5,18.5c-0.1,0-0.1,0-0.2-0.1c-0.5-0.4-0.8-0.9-0.8-1.6V2c0-1.1,0.9-1.9,1.9-1.9h7.9c0.2,0,0.4,0.2,0.4,0.4
			v0.7c0,0.2-0.2,0.4-0.4,0.4S12,1.3,12,1.1V0.8H4.4C3.7,0.8,3.2,1.4,3.2,2v14.9c0,0.4,0.2,0.8,0.5,1c0.2,0.1,0.2,0.3,0.1,0.5
			C3.7,18.5,3.6,18.5,3.5,18.5z"/>
	</g>
	<g>
		<g>
			<g>
				<g>
					<path class="st0" d="M3.1,21.9C3.1,21.9,3.1,21.9,3.1,21.9C3.1,21.9,3.1,21.9,3.1,21.9C3.1,21.9,3.1,21.9,3.1,21.9z"/>
				</g>
				<g>
					<path class="st0" d="M3.1,21.9C3.1,21.9,3.1,21.9,3.1,21.9C3.1,21.9,3.1,21.9,3.1,21.9z"/>
				</g>
				<g>
					<path class="st0" d="M3.1,21.8C3.1,21.8,3.1,21.8,3.1,21.8L3.1,21.8z"/>
				</g>
			</g>
		</g>
	</g>
</g>
</svg>
