<?xml version="1.0" encoding="utf-8"?>
<!-- Generator: Adobe Illustrator 24.0.2, SVG Export Plug-In . SVG Version: 6.00 Build 0)  -->
<svg version="1.1" xmlns="http://www.w3.org/2000/svg" xmlns:xlink="http://www.w3.org/1999/xlink" x="0px" y="0px"
	 viewBox="0 0 50 50" style="enable-background:new 0 0 50 50;" xml:space="preserve">
<style type="text/css">
	.st0{fill:#FFFFFF;}
</style>
<g id="Layer_1">
</g>
<g id="Layer_2">
	<g>
		<g>
			<path class="st0" d="M23.6,30.2c-1.7-0.9-3.7-1.5-5.8-1.5h-5c-2.2,0-4.2,0.6-6,1.6c-3.7,2.1-6.2,6.1-6.2,10.6v3.8h29.4v-3.8
				C29.9,36.3,27.4,32.3,23.6,30.2z"/>
		</g>
	</g>
	<g>
		<g>
			<path class="st0" d="M37.4,25.4h-4.2c-2.4,0-4.7,0.7-6.6,2c0.9,0.6,1.8,1.3,2.6,2.1c3.1,3.1,4.8,7.1,4.8,11.5v1.8h15.6v-5.1
				C49.6,30.9,44.1,25.4,37.4,25.4z"/>
		</g>
	</g>
	<g>
		<g>
			<path class="st0" d="M35.4,7.1C35.3,7.1,35.3,7.1,35.4,7.1c-4.6,0-8.2,3.9-8.2,8.7c0,4.7,3.7,8.6,8.2,8.6c0,0,0,0,0.1,0
				c2.2,0,4.3-1,5.8-2.6c1.5-1.6,2.3-3.8,2.3-6.1C43.5,11,39.8,7.1,35.4,7.1z"/>
		</g>
	</g>
	<g>
		<g>
			<path class="st0" d="M15.2,5.8c-5.2,0-9.4,4.5-9.4,10c0,4,2.2,7.4,5.4,9c1.2,0.6,2.6,1,4,1s2.8-0.3,4-1c3.2-1.6,5.4-5,5.4-9
				C24.7,10.3,20.5,5.8,15.2,5.8z"/>
		</g>
	</g>
</g>
</svg>
