<?xml version="1.0" encoding="utf-8"?>
<!-- Generator: Adobe Illustrator 24.1.0, SVG Export Plug-In . SVG Version: 6.00 Build 0)  -->
<svg version="1.1" id="Layer_1" xmlns="http://www.w3.org/2000/svg" xmlns:xlink="http://www.w3.org/1999/xlink" x="0px" y="0px"
	 viewBox="0 0 20 20" style="enable-background:new 0 0 20 20;" xml:space="preserve">
<style type="text/css">
	.st0{fill:#FFFFFF;}
</style>
<g>
	<g>
		<path class="st0" d="M19.5,14.8L12.5,2c-1.1-1.9-3.8-1.9-5,0l-7,12.8c-1.1,1.9,0.2,4.4,2.5,4.4H17C19.2,19.2,20.6,16.7,19.5,14.8z
			 M10,16.9c-0.6,0-1.2-0.5-1.2-1.2s0.5-1.2,1.2-1.2s1.2,0.5,1.2,1.2S10.7,16.9,10,16.9z M11.2,12.3c0,0.6-0.5,1.2-1.2,1.2
			s-1.2-0.5-1.2-1.2V6.5c0-0.6,0.5-1.2,1.2-1.2s1.2,0.5,1.2,1.2V12.3z"/>
	</g>
</g>
</svg>
