<?xml version="1.0" encoding="utf-8"?>
<!-- Generator: Adobe Illustrator 24.0.1, SVG Export Plug-In . SVG Version: 6.00 Build 0)  -->
<svg version="1.1" id="Layer_1" xmlns="http://www.w3.org/2000/svg" xmlns:xlink="http://www.w3.org/1999/xlink" x="0px" y="0px"
	 viewBox="0 0 512 512" style="enable-background:new 0 0 512 512;" xml:space="preserve">
<style type="text/css">
	.st0{fill:#FFFFFF;}
</style>
<g>
	<path class="st0" d="M274.9,111.5c-0.6-12.1-13-10.1-25.1-10.1C258.7,103.8,267.2,107.1,274.9,111.5z"/>
	<path class="st0" d="M145.7,81.1c-46.9,0-68.5,59.4-31,89.2c12.8-34.1,38.2-58.6,71.6-68.3C177.2,89.4,162.5,81.1,145.7,81.1z"/>
	<path class="st0" d="M48.8,161.1c1.9,6.1,4.4,12,7.3,17.6l-15.4,15.4c-4.1,4.1-4.1,10.9,0,15l27.2,27.2c2,2,4.7,3.1,7.5,3.1
		c2.8,0,5.5-1.1,7.5-3.1l15.4-15.4c2.3,1.2,4.9,2,7.3,3c0-0.2,0-0.4,0-0.5c0-12.6,1.4-24.5,4-35.6c-18.6-12-31-32.7-31-56.4
		c0-37,30.1-67.2,67.1-67.2c25.1,0,46.7,14,58.3,34.3c12.3-1.5,23.9-1.5,37.9,1.1c-1.8-5.4-3.9-10.7-6.5-15.7l15.4-15.4
		c2-2,3.1-4.7,3.1-7.5c0-2.8-1.1-5.5-3.1-7.5l-27.1-27.2c-2.1-2.1-4.8-3.1-7.5-3.1c-2.7,0-5.4,1-7.5,3.1l-15.5,15.4
		c-5.6-3-11.5-5.4-17.6-7.3V12.6C175.6,6.7,170.8,2,165,2h-38.4c-5.8,0-10.6,4.7-10.6,10.6v21.8c-6.1,1.9-12,4.3-17.6,7.3L82.9,26.3
		c-2.1-2.1-4.8-3.1-7.5-3.1c-2.7,0-5.4,1-7.5,3.1L40.8,53.4c-2,2-3.1,4.7-3.1,7.5c0,2.8,1.1,5.5,3.1,7.5l15.4,15.4
		c-2.9,5.6-5.4,11.5-7.3,17.6H27.1c-5.9,0-10.6,4.8-10.6,10.6v38.4c0,5.8,4.7,10.6,10.6,10.6H48.8z"/>
	<path class="st0" d="M381.6,366.7c17-9.3,28.7-27.2,28.7-47.9c0-30.2-24.6-54.8-54.8-54.8c-10.6,0-20.5,3.2-28.9,8.4
		c-5,20-13,39.2-23.3,55.9C332.7,333.9,359.7,347.3,381.6,366.7z"/>
	<path class="st0" d="M495,298.1c0-6.3-5.1-11.4-11.4-11.4h-23.5c-2-6.6-4.7-13-7.9-19l16.6-16.6c2.2-2.1,3.4-5.1,3.4-8.1
		c0-3-1.2-5.9-3.4-8.1l-29.3-29.3c-2.2-2.2-5.2-3.4-8.1-3.4c-2.9,0-5.9,1.1-8.1,3.4l-16.7,16.6c-6-3.2-12.4-5.9-19-7.9v-23.5
		c0-6.3-5.1-11.4-11.4-11.4h-41.4c-2.8,0-5.2,1.1-7.2,2.8c3.5,12.7,5.4,26.5,5.4,41.3c0,9.4-0.7,18.8-2.1,28.3
		c7.7-2.8,15.9-4.6,24.6-4.6c39.6,0,71.8,32.2,71.8,71.8c0,25.3-13.2,47.5-33,60.3c14.4,15.8,25.9,34.6,33.4,55.6
		c1.2,0.4,2.5,0.7,3.8,0.7c2.9,0,5.9-1.1,8.1-3.4l29.3-29.3c2.1-2.1,3.3-5.1,3.3-8.1c0-3-1.2-5.9-3.3-8.1L452.1,370
		c3.2-6,5.9-12.4,7.9-19h23.5c3,0,6-1.2,8.1-3.4c2.1-2.1,3.4-5.1,3.4-8.1L495,298.1z"/>
	<path class="st0" d="M404.3,445.1c-17.8-52.3-64.7-88.3-118.9-93.1c-18.2,19.2-40.6,31.4-66.1,31.4c-25.4,0-47.9-12.2-66.1-31.4
		C99,356.8,52,392.8,34.2,445.1L24.4,474c-2.8,8.3-1.5,17.5,3.7,24.6c5.1,7.1,13.4,11.4,22.1,11.4h338.1c8.8,0,17-4.2,22.2-11.4
		c5.1-7.1,6.5-16.3,3.6-24.6L404.3,445.1z"/>
	<path class="st0" d="M131.1,223.4c0,64.9,39.5,134.5,88.2,134.5c48.7,0,88.2-69.6,88.2-134.5C307.4,88.9,131.1,88.6,131.1,223.4z"
		/>
</g>
</svg>
