<?xml version="1.0" encoding="utf-8"?>
<!-- Generator: Adobe Illustrator 24.1.0, SVG Export Plug-In . SVG Version: 6.00 Build 0)  -->
<svg version="1.1" id="Layer_1" xmlns="http://www.w3.org/2000/svg" xmlns:xlink="http://www.w3.org/1999/xlink" x="0px" y="0px"
	 viewBox="0 0 20 20" style="enable-background:new 0 0 20 20;" xml:space="preserve">
<style type="text/css">
	.st0{fill:#FFFFFF;}
	.st1{fill:url(#SVGID_1_);}
	.st2{fill:url(#SVGID_2_);}
	.st3{fill:#BFCFDA;}
</style>
<g>
	<g>
		<path class="st0" d="M13,0.5L17.5,5l0,14.4l-14.8,0V0.5h2v1.7h2.1V0.5h2v1.6h2.2V0.5L13,0.5L17.5,5"/>
		<linearGradient id="SVGID_1_" gradientUnits="userSpaceOnUse" x1="10.1072" y1="0.2978" x2="10.1072" y2="19.5868">
			<stop  offset="0" style="stop-color:#C0C0C0"/>
			<stop  offset="1" style="stop-color:#7A7A7A"/>
		</linearGradient>
		<path class="st1" d="M2.3,19.9V0.1h2.9v1.7h1.2V0.1h2.9v1.6h1.3V0.1l2.6,0L18,4.9l0,15L2.3,19.9z M3.1,1v18l13.9,0l0-13.8L12.8,1
			l-1.3,0v1.6H8.4V1H7.2v1.6h-3V1H3.1z"/>
	</g>
	<g>
		<g>
			<path class="st0" d="M13.6,5.6c-0.7,0-1.2-0.5-1.2-1.2l0-3.5c0-0.2,0.1-0.3,0.2-0.4c0,0,0.1,0,0.1,0c0.1,0,0.2,0,0.3,0.1l4.2,4.3
				c0.1,0.1,0.1,0.3,0.1,0.4c-0.1,0.1-0.2,0.2-0.4,0.2C17,5.6,13.6,5.6,13.6,5.6z"/>
			<linearGradient id="SVGID_2_" gradientUnits="userSpaceOnUse" x1="14.9165" y1="0.4811" x2="14.9165" y2="19.0786">
				<stop  offset="0" style="stop-color:#C0C0C0"/>
				<stop  offset="1" style="stop-color:#7A7A7A"/>
			</linearGradient>
			<path class="st2" d="M12.8,0.9L17,5.2l-3.4,0c-0.5,0-0.8-0.4-0.8-0.8L12.8,0.9 M12.8,0.2c-0.1,0-0.2,0-0.3,0.1
				C12.2,0.3,12,0.6,12,0.9l0,3.5c0,0,0,0,0,0C12,5.3,12.7,6,13.6,6c0,0,0,0,0,0l3.4,0c0.3,0,0.6-0.2,0.7-0.5
				c0.1-0.3,0.1-0.6-0.2-0.8l-4.2-4.3C13.2,0.3,13,0.2,12.8,0.2L12.8,0.2z"/>
		</g>
	</g>
	<rect x="3.1" y="15.9" class="st3" width="13.9" height="1.5"/>
	<rect x="3.1" y="13" class="st3" width="13.9" height="1.5"/>
	<rect x="3.1" y="9.9" class="st3" width="13.9" height="1.5"/>
	<rect x="3.1" y="6.9" class="st3" width="13.9" height="1.5"/>
</g>
</svg>
